<svg xmlns="http://www.w3.org/2000/svg" width="1000" height="200" viewBox="0 0 2000 400">
  <defs>
    <style>
      .cls-1 {
        fill-rule: evenodd;
        fill: currentColor;
      }
    </style>
  </defs>
  <path id="PuLa" class="cls-1" d="M268.467,115.7l1.633,1.633h0.933l0.7-1.166,1.167,0.466,1.4-.933,0.7,0.7,1.633-.7,1.167,0.933,0.933,0.7,1.867-1.166,0.933,1.633,1.634-1.167,0.933,1.634,2.1-1.167,0.467,1.867,0.7-.234,1.4,0.7,0.466,1.867h0.934v2.1l1.633,0.933,0.7,2.1,0.467,1.4L293.9,129.7l0.933,1.633,0.467-.466-0.233,2.333h0.7l1.166,2.567L297.4,137.4l0.233,0.467V138.8l1.167,2.1-0.7.933,0.7,1.4,0.233,0.934,0.234,2.333-0.7,1.167,0.7,0.933,0.466,2.333-0.933-.7,0.233,2.567,0.7,0.933-0.466.467-0.467.7v2.8l-0.467,1.867,0.467,1.4-0.233.466H298.1l-1.4,2.1v1.634l-0.933.933-0.7.933h-0.934l-0.933.934v2.566l-1.167,1.167-0.7.933-0.7-.233-0.933,2.1-0.233-.933-0.934,1.166-0.933,2.1-1.4.234-0.467,1.166-0.466.234-1.4.933-0.7.233-1.634,2.1-0.466,1.634-0.934-1.4-0.466,1.166-0.7,2.334-0.934-.934-0.7,2.1-1.633,1.4-1.167-.233-0.466.7-0.934.233-0.466.467-1.4.7-0.467,1.4-1.167,2.567-1.4-.467v1.867l-0.7.466,0.234,2.8L268.233,199l0.7,0.7,0.934,1.4,0.933,0.7,1.167,1.4,1.4,1.167H274.3l1.167,0.466,0.933,1.634,1.167-.467,0.233,2.333h1.4l1.4-.466,1.167,1.4L282.7,210.9l1.167,0.233,0.233,3.034,1.633-.234,0.234,2.1H286.9l0.7,2.1,1.167,0.467,0.466,1.4v2.1H290.4v1.633l1.167,1.4H292.5l1.167,0.467L294.6,227l1.167,2.567,1.166-1.167,1.634,0.7,1.633,0.933,0.933-1.4L302.3,229.1l2.333-1.867,0.467-1.166,0.7-.467,0.7,0.7,1.167-.467,1.166-2.566,1.4,1.4,0.467-2.8,0.467-.234,0.933-.7,1.867,0.234v-0.7L314.9,220l1.633-2.567V218.6l0.934-1.167,1.866-1.4,0.467,0.234,1.167-1.634,0.7-.7,0.466-.7,0.934-.233,0.466-1.167,1.634-1.4,0.7-1.4v0.934l1.866-.467,0.234-1.633,0.7-.7,1.4-.234L331,203.2h0.7l1.167,0.233,0.933-.933,0.233-1.4,1.634-.467-0.234-1.866,1.4-.467h0.7L338,196.433l1.167,0.467,1.4-3.267,1.166-.7,1.167-.233,0.933-1.4,0.467-1.4,0.933-.233v-0.934l0.934-.933,1.166-.7-0.466-2.1,1.166,0.933L347.8,183.6l0.933-1.867,0.234-2.333v-0.933l1.166-2.1-0.233.466,0.933-2.8v-0.466l1.4-1.867,0.7-2.567,0.234-1.633-0.467.233,1.633-2.333-0.233-.467,0.7-.466,1.633-1.4,1.867-.7h1.167l0.7,0.466,1.4,0.934,0.7-.467,0.7,1.633,1.166,2.334,0.934,1.866,0.233-.233,0.7,2.567v0.7l0.933,2.1,1.167,3.5,0.7-.234,0.233,1.4,0.234,2.8v-0.7l-0.234,1.4,0.7,3.734-0.466,1.166,0.933,0.7-0.933,1.634,0.933,0.7L369.267,192l0.233,1.4,0.233-.467,0.234,1.4-0.467,1.4,0.467,1.634v1.4l-0.234,2.8,0.234-.234,0.233,0.934,0.233,2.566v0.7l-0.7.467,0.234,2.8-0.234-.467,0.467,1.634,0.233,1.166,0.467,1.4-0.7,1.634,0.467,2.8H370.9l0.233,0.233V220l0.234,0.467-0.467,2.1V222.1l0.233,3.033-0.233.234,1.167,1.4-0.234,1.866L372.3,230.5l-0.233-.233,0.233,2.1-0.7-.467-0.233,2.567,0.933,0.7-1.167,1.166,0.934,1.634-0.7.466-0.7,3.267h-0.234l0.934,2.1-0.934.233,0.7,1.634-0.7,2.1,0.7-.7-0.7,1.866-0.233.934v2.1l0.933,1.4-0.7-.234,0.7,0.934-0.7,2.1,0.467,1.166-0.467.467v2.8l0.234,1.4,0.7,1.633,0.233,2.1v1.634l-0.233,1.866,0.233-.466v2.1l-0.467,1.633,0.234,0.467-0.234,1.633-0.7,2.1,0.7,1.167-0.933.466V279.5l0.7,2.567h-0.933l0.466,2.1-0.7.7,0.234,1.866-0.467.7h-0.233v0.934l0.233,2.1-0.467,1.866-0.233.934,0.467,0.466-0.234,2.334-0.466-.467V297l-0.234,1.867v1.4h-0.466l-0.234,2.333,0.234,3.033-0.234-.233-0.233,1.633,0.233,2.1-0.933.7,0.467,0.234-0.467,2.1-0.467.233-0.233.933v1.634l0.7,1.4-0.233,2.566V320.8H366l-0.7,1.167v3.266l-1.867-.466-1.866.7h-0.934l-0.933-.934h-2.333L356.9,323.6l-0.233-2.567-1.634.7v-2.566l-1.166.466-0.234-1.866H353.4l-0.7-1.167-0.933-2.567,0.466-.933,0.234-1.633-0.7-.934,0.466-3.033,0.934-1.4-0.234-1.867,0.7-1.866-0.7-.467,0.467-2.333,0.233-.7-0.466-.934L354.1,295.6l-0.933-1.167v-3.266l0.7-1.167-0.234-.233,0.467-1.4-0.7-2.8,0.467,0.233-0.234-2.1V283l0.234-.233,0.233-2.334-0.933-1.866,0.7-.7-0.7-.467,0.933-1.167-0.467-1.633,0.234-.233-0.234-2.1V270.4l0.467-1.167-0.467.467,0.234-2.333V266.2l-0.234-.7,0.234-3.267h-0.234L353.4,259.9l0.7-.233-0.467-1.4V257.8l-0.233-2.567,0.933-1.166h-0.7V253.6l0.234-2.8,0.466-.933V248l-0.933-.467h0.233v-1.166l0.234-.934v-3.266l0.466,0.233-0.7-1.867,0.234-2.1-0.467-.7,0.7-1.633-0.233.7v-3.267l-0.234-1.4h0.234l-0.467-1.166v-0.7l0.7-2.1L354.567,227l-0.467-2.1-0.233-.233-0.234-1.4,0.234-1.4,0.466-.467-0.233-1.167,0.467-1.866,0.233-.234-0.467-2.566,0.234,0.7,0.233-1.4-0.233-.934L354.8,211.6v-0.7l-0.933-.233V207.4l0.7-.7-0.7-.467-0.934,2.567-0.7-.467-0.933,1.4-0.933,1.867v0.233L349.9,213.7h-1.167l-0.7-.233L347.1,215.1l-0.933,1.867h-0.234l-1.166,1.4-0.7.233-0.234,1.167-0.466.7-2.1,1.633-0.467,1.867-2.333,1.633-0.934.233-0.466,1.634-0.467,1.166h-1.4l-0.467,2.334-0.933.233h-0.467l-1.4,3.5-1.633-.467-0.467,1.634-0.7,1.166-1.633-1.4-0.467.934-1.633.233-0.933.933-0.7,1.167-0.934,1.167-0.7-.7-0.933,2.566-0.7-.466-1.4.7-0.7,1.633-0.933.467-1.4.466L315.6,243.8l-1.633,1.4-0.934.233-0.933,2.1-2.333.234-0.467,2.1-0.467-1.4-0.933,2.1-1.167.7-0.466,1.166-1.167.934-0.467,1.166-0.466,1.167h-0.934l-0.233.233-1.633,3.267v0.7L300.9,262h-0.933v2.333l-0.467-.7-0.933,2.8-0.7.234-0.234,1.866-0.7-.933L296.7,269l-1.167,1.633,0.234,1.634-1.167.933-0.933.933-0.7-.466V276.7l-1.867-.233V277.4l-1.167.7v2.8l-1.633.467h-0.933l-1.4.933-1.4,1.167-0.7,1.866-0.7.7-0.7.467-1.4.467-1.4.233-0.7-.233-0.467.933h-1.867l-1.166,1.633-0.234,1.4L274.3,290l-0.933,2.1h-2.334l-1.633,2.1-0.233.467-1.4,1.166-0.7.467-1.4-1.633-0.934,1.166-1.4,1.4-1.166-1.4L261.7,297l-2.1-.7-0.233,2.333h-2.334l-1.166.467-1.634-1.867-1.4.234-1.4-.7-0.466,1.866-2.1-2.1-1.4-.466h-0.7L245.6,295.6l-2.333-2.567-0.7-.7V288.6l0.466-1.167-0.466-1.166,0.7-.467L242.8,283l0.7-1.4-0.233-1.167L244.2,280.9l0.467-2.1v-2.1l0.466-1.633,0.934-.467L247,275.067l-0.233-3.034,0.933-.7,0.933-.7,0.234-.7,1.633-1.4,0.7,0.234-0.233-.7,1.166-.234,0.467-2.8,1.867-.933,0.7-.467,1.633-.466L257.5,262l1.167-.933,0.7,0.7,0.7-2.1,1.166-.467,0.934,0.467,0.7-2.334,1.4,0.234,1.166-1.4,0.234,0.933,2.1-2.1,0.933-.467,1.633-.7,0.7-2.333,0.234-.467,1.633-.933,0.7,0.233,0.933-.233,1.167-1.867h1.633l0.7-2.8,0.7,0.934,1.167-.934,0.233-2.566v-0.934l1.167-.466-0.233-1.167-0.7-2.333-0.234-2.1-1.166-.234-0.7-1.633h-0.934l-0.7-.933-1.166-.934-0.234-2.566-1.866-.234-0.934-.7-0.933.7V227l-1.867-1.167-0.466-.466-1.4.933-1.167-1.633-1.167-1.167-1.166-.467-0.7-.466-0.7-.934-1.167.934-0.933-1.867-1.867-2.1-1.633-.7-0.467-.233-0.933-.934-0.7-.466-1.167-1.4-1.167-.234-0.233.7-0.933-1.166-1.167-3.034-0.467.467-0.933-1.633-0.7-1.634L248.633,206l-1.166-1.4-0.234-1.167,0.234,0.467v-2.567l-0.934-1.166L247,201.1l-0.933-3.967v-0.7l-0.234-3.033,0.467-.467v-0.466l0.7-1.4,0.233-3.967,0.234,0.933,1.633-.7V185.7l1.167-.467,0.933-1.166,0.467-2.1,1.166-1.167,0.467,1.167,1.633-1.4,0.467-1.634,1.167-2.1,0.233-1.166,0.933,0.466,0.7-1.166-0.233-.7,0.7-1.4,2.333-.934,0.234-1.866,1.4-1.4,0.7,0.233,0.933-1.167,1.867-.7,0.233-1.166,0.933-.467,0.7-.7,2.567-1.867,0.233-.933,1.867,0.7,0.7-1.4,0.467-1.167,0.466-.933,1.167-1.633,0.233,0.466,1.167-.7,1.867-3.266L279.2,154.2l1.4-2.567-0.233-.466v-2.334l0.466-1.166v-0.934l-0.466-1.866-0.467-2.334-1.4-.7-0.233.934-1.4-.467-1.634-2.333-1.633,1.166-1.867-.233-2.333,1.167-0.7-1.634-1.867.7-0.466-.233h-2.1l-0.934,1.867-0.466.233-1.4.7-0.934-1.4-2.1,1.167h-1.866l-0.467.7L254.467,143l-1.4.933-0.934-.233-0.7.233-0.933-.466-2.1,1.866-1.633,1.167-0.467-.467-0.933,1.167-0.934,1.633L243.5,148.6l-2.333,1.167L240,149.533l-2.1-.466-1.4-1.4-0.7-1.167-1.633-.467-1.4-.466-0.234.233-1.633-1.167-1.633-2.333-0.467-1.633-1.167.466-0.466-1.166-0.7-2.1,0.233,0.7-0.233-1.634-0.7-2.566V132.5l-0.234-.933,1.167-1.634,0.7-2.1-0.233-1.866h0.466L228.1,124.1l1.867-1.4-0.234-.7,1.867,1.167L232.533,122l0.7-.467,2.567-1.166,0.7-1.167,1.167,1.167,1.866-1.4h0.934l0.933-.234,1.633,1.4,1.4-1.4,0.234,0.7,1.866-.466,1.167-1.4,0.7,0.466h1.867l0.933-.233,1.167,0.933,0.933-.933h3.967l1.166-1.633,0.934,1.866h2.1l1.166-1.633,1.4,0.7,1.4-.467,0.7-.7ZM509.733,79.533L508.8,79.3l-0.7-.933-1.4.233-1.167-2.333-1.166-.467-0.934.467h-0.7l-1.4-1.867-0.466-.233-1.167-.7L498.067,75.1l-0.234-1.167-2.1-.467L495.267,73l-1.634-.467-0.233.233L492,70.9l-1.633.7-1.4-.933-0.934.467-0.933-.7L485.467,71.6,484.3,69.733l-1.167,1.4L482.9,69.967l-2.1-.467-0.233.233H478.7l-2.333-.233-1.4.933L474.033,68.8l-0.466,2.1-2.1-.467-0.467.7-1.633-.7-0.934.933L467.267,69.5,466.1,70.667l-0.933.233L463.3,69.733l-0.7.7L461.2,72.3l-0.467-1.633-1.866.933H458.4l-1.167.233-1.633.7-0.7-.233-1.4.467-0.933-.233L450.933,73.7l-1.166.233-2.1.933-1.634.7-0.933.467L444.867,77.2l-1.167.933-1.867-1.167-0.7,2.1-0.233-.233L439.033,80h-1.166l-0.7,1.167h-0.7L435.3,82.1l-0.7,1.167-0.933,1.167L432.733,85.6l-0.7.467v1.4l-1.166.233-0.934.7L429,90.267v1.167l-0.7.933-0.7-.233V93.3l-0.467,2.567-1.166-.467v2.8L424.8,99.833l0.233,0.934-1.166,1.166-0.467,1.634,0.467,1.4-0.467.466,0.7,1.167-0.233,2.1-0.467.933V110.8l-0.7,1.4,0.233,0.467-1.166,4.2v4.2L422,122.7l0.233,0.7L422,124.8l0.233,1.4-0.233.467-0.233,1.4,0.7,0.233-0.934.467,0.934,2.8-0.7.933L422,133.9v1.167l-0.467,2.566v-0.7l0.7,1.167,0.234,2.8-1.167.233-0.233,2.1-0.234,2.334-0.933-.934-2.333.934L416.4,145.1l-1.4-.233-0.7-3.267-1.633-.7-1.167-1.4-0.467-1.167,0.234-.466-0.7-1.167-0.934-1.867-0.7-1.4,0.234-.233-0.934-1.633,0.467-.234-0.467-3.733-0.466-.7v-1.167l0.466-.933v-1.167l-1.166-1.866V122l-0.467-1.867,0.7-.466-1.167-2.8-0.233-2.1,0.233-.467v-0.933l-0.7-2.8,0.234-1.867V108l0.933-1.4-0.7-1.4v-2.1h0.933v-1.867l0.234-1.4-0.934-1.167,0.7-.467V95.633L406.6,93.767l0.933-1.4v-0.7l-0.466-.7,0.466-4.2,0.7,0.933L408,84.9l0.233-.467,1.634-1.867,0.466-2.1h-0.466l1.4-.933H410.8l0.7-2.1,0.467-.933,0.933-1.867,0.7,0.467V74.167l0.7-2.567,0.933-.233L416.4,70.2l0.467-2.8,0.466,0.467,0.934-1.633L418.5,66l1.167-.233,1.4-1.4,0.7-.467,0.933-1.4,0.467,0.233,0.7-.933,2.1-2.333L427.6,58.3l0.7,0.7h1.4l0.233-2.333,1.634-.7,0.466,0.7,1.634-1.167H434.6l1.167,0.467,2.1-.933,1.4-2.1L439.5,52l1.4,0.933,1.4-.7h1.633l2.1-2.333,0.234-.7,1.866,1.633,0.934-.933,0.7,0.233,1.866-1.4,1.167,0.7,0.7-.467,1.4-.467,0.233-1.633,2.1,1.633,0.934-.933,1.166,0.467h0.934l1.633-1.867,0.467,1.633,1.4-1.867,0.7-.233,2.333,1.867,1.633-.7h0.7l2.1-1.4,0.7,1.4L473.1,47.1l0.467-1.167h1.166l2.1,1.633,0.234-.933L478.7,45.7l0.7,0.233,1.867,0.933h1.4L482.9,46.4l2.1,0.933,0.233-.233,1.867,1.867,0.7,0.467,1.167-1.867L490.6,48.5l0.233,1.633L492.7,49.9l0.933,0.233,2.334,1.633,0.466-1.167,0.934,0.933,1.4,2.1L499.233,52l1.4,2.8,0.7,0.467,1.634,0.233,0.7,0.933h0.7l1.166,1.167,1.4-.7,0.934,0.933,1.4,0.933L510.2,58.3l1.167,1.633,0.233,1.633,0.7,0.233,1.867,0.233,0.466,0.7,1.167,1.633,0.467-.467,1.633,1.4,0.7,1.633,0.467,0.7H520l0.467,1.867,1.4-.233,2.1,0.467L525.6,69.5l1.4-.233,2.333,0.233,0.467-.233h1.633l1.167,1.167L534,70.2l0.7,2.1,1.633,0.467,0.934-.233,1.166-.233,0.934,1.633,1.4,0.933,0.7,1.167,0.933,0.933,1.167-.7,0.233,2.1,1.867,0.7,0.7-.7L546.833,80l1.4,0.467,0.467,1.4,2.333,2.1,0.234-.933,0.466,0.933,1.167,1.167,1.167,1.633,0.233,1.167,1.167-.7,1.166,1.867,1.867,1.167,0.233,1.167,1.4,0.933L559.9,93.3l0.7-.7,0.933,0.933v3.033l1.634,0.933-0.234.933L564.1,98.9l0.233,1.167-0.233.7,0.7,1.866,0.467-.466,1.166,2.333,0.467,1.633-0.233.467,0.933,0.467-0.467,2.333,1.167-.7-0.467,1.633V110.8l0.7,3.267-1.166.466-2.8.234-2.334-.934L562,113.367l-1.167-1.634-0.7-.7L559.2,110.1l-1.633-.933L557.1,108.7l-0.7-.467-1.4-1.4-0.233.467-1.167-.233-0.7-2.1-0.467.466L551.5,103.1l-1.4.7-0.7-2.1-0.467.7L548,101.467l-1.167-1.634-1.4-.233-0.233-.7-2.1-2.567-1.167-.233-1.4-1.167-0.7-.467-0.233-.233-1.4-1.4-1.167-1.167-0.7-.467-0.933.7-1.633-1.4-0.7-1.633L531.9,89.1h-1.4l-1.4-.233L528.167,87.7l-0.467.7-1.167-1.167h-1.4l-1.166-.933-0.934-1.167-1.166-.933-0.934,1.167-1.633-.933-0.233-.7-1.167-1.4-1.867-.233-0.233.7-1.633-.467-1.4-1.167-0.7-.933ZM443.233,215.8l0.467,1.4,0.467,0.933L443.7,220l-0.933.7,0.466,0.933L442.3,224.2v1.633l-0.467,1.4V228.4l-0.466-.933,0.233,1.166-0.467,3.267v-0.7l0.7,1.4-0.7,2.1v1.4l0.234,0.7H442.3v3.733l-0.233,2.334v1.4l-0.234,1.4,0.7,1.166V250.1l-0.7.933v0.7l-0.233,3.034-0.233.933v0.467l0.466,1.166-0.7.467v2.1l-0.466,1.867,0.466-.234L440.9,262.7l-0.933.7v2.333h-0.934v2.8L438.8,268.3l-0.7,2.1h0.467l-0.934,1.867-0.7.933-0.466,1.867-0.234-.234-0.933,2.334-0.467,1.166-0.466,1.867h-0.234L433.2,283l-0.233-.467-0.934,1.4-0.466.7,0.466,1.867H431.1l0.233,1.633-0.7.7-0.933,2.8V293.5l-0.467.467L428.3,295.6l0.233,0.933-0.233,1.4-0.7.7-1.167,1.634v1.166l-1.4,1.167v1.167l-1.4,2.1-1.633,1.4-0.467-.7-1.866,1.866-0.467-.7-2.333-.233-1.4-1.4-0.7-.467-0.467-4.2,1.4-.7V298.4l0.467-.467V297l0.7-1.867v-0.7l0.466-1.4V290.7l0.467-.7v-1.633l0.7-1.867,0.233,0.933-0.7-2.566,1.167-.934h-0.7l0.7-1.4V281.6l0.467-2.333v-0.934l-0.467-.7v-2.8l0.233-2.1V271.8l1.167-.467h-0.233l0.233-1.4v-1.4l0.467-2.333-0.467-1.167V264.1l0.933-.467-0.466-2.1,1.166-.466L422,258.733v-0.466l0.7-.7v-2.334l0.233-.933,0.234-.933-0.467-2.334,0.467-.233v-4.433l0.233-.934h0.933L424.1,243.1l-0.233-1.167,0.7-1.166,0.7-3.734L424.8,235.4l0.467,0.7,0.7-1.4,0.233-.933,0.233-3.034-0.233.467v-1.867l-0.467-.7,0.7-1.866-0.466-.467,0.933-.7-0.467-2.567-0.466-1.166,0.7-.467-0.234-.933,0.234-.467,0.466-.933-0.933-2.1,0.933-1.634-0.466-1.166V212.3l0.466-1.633,0.234-1.4V205.3l-0.934-3.033,0.234,0.7,0.7-.934-0.934-1.4L426.667,199v-1.633l-0.234-.7,0.934-2.334-0.7-.7,0.466-.7v-0.7l-0.233-2.8,0.467-.7-0.467-1.4-0.467.467,0.934-.7-0.234-2.8v-0.933l-0.7-1.167,0.934-3.033-0.7.7,0.7-2.334-0.7-.933-0.467-2.567-1.167-.466L425.5,172.4l-0.467-2.1-0.233-.7v-0.7l0.233-2.333-0.7.466,0.234-.7v-2.8l0.466-.466,0.467-3.034,0.467-1.166,0.7-.934V157l1.4-1.4,0.466,0.233,1.634-.7,1.4-1.166,1.4-.234,0.933,0.234,1.867-.7L436,154.2l1.4,1.4,1.167,1.167,0.7,1.866,0.466,0.234,1.4,0.7,0.467-.234,0.933,2.8v1.634l-0.233,1.166,1.4,2.1-0.233,1.167,0.933-.7-0.7,1.867,1.4,0.933v2.333l0.233,2.334,0.467-.7L446.033,178l0.234,1.633-0.934.234,0.7,1.4-0.233,1.866V182.9l-0.467.7-0.466,1.4,0.933,0.933-0.467,1.634-0.466,1.866,0.233,1.634h-0.233l-0.7,1.866,0.933,1.634-0.233.933h-0.234l-0.7,1.167L444.4,197.6l0.233,1.633-0.933,2.334,0.233-.467,0.234,1.633-0.467,2.334-0.233,1.866V207.4l0.466,0.933,0.234,1.167v1.867l0.233,1.4Zm147.7,51.333-0.933-2.8h0.7l0.467-1.866H590.7l0.7-1.867-0.233-2.1v-2.1L590.7,255h0.933l-0.7-2.567,0.234-.466V250.8l-0.467-.467-0.233-1.166L590.7,248l0.467-3.033-0.234-1.167L590,242.633l-0.233-1.4v-2.1l0.466-.7-0.7-.933L590,236.1l0.233-1.633,0.234,0.466-0.234-1.633,0.934-2.333V229.1l-0.467-.467,0.467-3.033,0.233,0.933v-2.8l0.933,0.234L592.8,222.8l-0.233-2.333L592.333,220l0.7-1.4-0.466-1.867,0.933,0.234-0.467-2.334-0.233-1.166-0.7-2.567,0.7-.933-0.7-.467,0.933-.467L592.1,208.1l0.7-1.633L591.633,206l0.234-2.333h0.466l-0.7-2.1-0.466-1.867,0.233-1.4-0.233-1.867L590.7,196.2l0.233-.467-0.233-1.4,0.933-.933-0.233-2.1v-2.8l-0.467-.233,0.234-1.634,0.7-1.633,0.233-1.4-1.4.233-0.467.7-0.466.467-0.934,1.867-0.466-.234-0.467,3.034-1.633-.7-0.234,2.1h-1.166l-0.7-.234L583,192.467l-0.467.933-0.233-.233-1.167,1.866-1.866.7-0.934.467-0.933,2.567-0.467.233-1.166.7h-0.7l-0.7,2.567-0.934-.7v2.1l-1.633,1.166-0.7-.233-0.467,2.333L570.4,208.1l-0.933-.233-0.7,1.166-1.167-.466-1.167,1.166-0.233,2.1h-1.4v1.4L564.1,213l-1.633,2.567V215.1l-2.1,2.333-0.467,1.634-0.933.233-1.4-.467-0.234,1.867-1.166-.233L555,223.033l-0.933.7-0.934,1.167-0.466-1.4-0.7,2.333-0.934.467-1.4,2.333H548l-0.933-.233-0.467,1.633v0.934l-1.167,1.4-0.7,1.633-1.633.467L542.4,234l-0.233.7-0.7.7-0.934,2.567-2.1.7-0.466.7-0.7,1.866-0.7-1.4-0.934,1.867-1.166-.233-1.4,1.166-0.7,2.1L531.9,244.5l-1.633.7-0.7,1.867-0.234.7-0.7.933-1.4,1.167-1.166-.234-0.934,1.167-0.233.7-2.1.467v2.566h-0.7l-0.233,2.334-1.167.233-0.933,1.167-0.234,1.4-0.933,1.166h-0.467l-0.466,2.8-0.7-.233-0.467,1.633v0.7l-1.167,2.567,0.234-.933v2.1l-0.7,1.866-0.234,1.4,0.7,0.234-0.933.7,0.467,1.633v0.467l-0.467,1.866-0.233,1.634-0.234.933-0.466.233-0.234,2.8-2.1,1.867-0.7-.467-1.166.934L508.8,287.2l-1.633-1.867-0.7,1.167-1.4,1.4-0.467-.933h-2.1l-0.467.466-1.166-.233-1.4.467-1.634.7-1.166-2.567-1.634.467-0.466-.934-0.934-.233-0.933-.7-0.933-.233-1.167-.934V280.9h-1.4l0.233-1.4-0.7.233-0.466-2.8-1.167-.466v-0.934l-0.7-2.333-0.233-1.633-0.7-.234V269.7L485,267.367l-0.467-1.634v0.7L485,264.567l-0.233-1.167-0.234-.7,0.234-1.867,0.7-.7-0.234-.933L485,255.933,484.767,255l-0.234-1.867L485,253.6l0.467-2.567-0.467-.7,0.233-1.866L485,247.533l0.7-.933-0.233.233,0.7-1.4-0.467-2.1v-1.4l0.233-1.633,0.7-.467,0.234-.466,0.233-.7-0.933-1.634,0.466-2.1,0.7-1.166,0.234-1.4-0.934-1.4,0.7,0.7L487.1,229.1l0.7-1.633-0.7-1.867,0.933-.933-0.933-1.634,0.233-.7,0.7-1.633-0.466-1.633V217.9l-0.234-1.4-0.233-.467,0.467-2.1,0.7-1.4V211.6l-0.934-.933,0.234-2.334,0.466-.233v-4.9l-0.233-1.4-0.933.233,0.466-1.633-0.466-.233-0.467-4.2,0.233-.234,0.234-1.166-0.934-.467v-1.167l0.234-2.8-0.7-.233L485,188.033l-0.233-1.4,0.466-.7H485l-1.167-2.566,0.234-.7-0.467-.934-0.233-1.866,0.466-.934-0.7-.7,0.234-1.866H482.9l-0.7-1.634,0.933-.933-0.933-2.567V169.6l0.467-.467L482.2,166.8l-0.233-2.567L482.2,162.6h0.233l-0.233-2.333,0.933-1.167,0.234-.933L483.6,156.3l-0.933-1.4h1.166l-0.466-1.167L482.9,152.1l0.933-2.333L483.6,149.3l0.7-.467-0.933-3.5,0.233-1.166L484.067,143l0.933-.233,0.467-2.1,2.333-.234,0.467-2.1,0.7,0.934h1.866L492,138.1l1.167-.7,1.633,1.867,1.167,1.633,0.933,0.233h1.633l0.934,1.4,1.166-.466,0.467,0.7,0.467,1.866,0.933-.7,1.167,2.8-0.7,2.1,0.466,0.234V151.4l0.934-.233V153.5l-0.234.233,0.7,0.234-0.233,1.166,0.467,2.8v0.234l0.7,1.866-0.7.934,0.7,0.933-0.467.233L506,164l0.233,1.4-0.933,1.167,0.467,0.933,0.466,2.1,0.467-.233,0.233,2.8-0.233.933,0.467-.7-0.234,3.033,0.234-.233,0.233,0.7,1.167,3.967-0.234,1.4-0.466-.7,0.466,3.966-0.933,1.634,0.7-.467-0.233,2.8,0.466,0.467,0.467,1.4,0.233,1.4-0.7,2.8,0.934,0.7-0.7,1.166,0.233,1.634v2.1l0.7,0.7-0.467,1.633,0.467,1.167V205.3l-0.7.467-0.233,1.633v0.233L508.1,210.2l-0.233.233L508.1,210.9v2.567l-0.933,1.866,0.233,1.634-0.233-.234,0.233,0.7v1.4l-0.7,2.334-0.233,1.4L507.4,222.8l-0.233,1.4-0.7.933,0.466,0.467v1.167l0.234,3.266v2.334l-0.7-.234-0.234.7,0.934,2.334-0.934,1.4,0.934,0.233-0.7,2.8-0.234.467,0.467-.234v1.4l0.467,2.1-0.234,1.4L506.7,244.5v1.167l0.467,1.166,0.933-2.566,0.7-.934,1.167-1.166,1.4-1.867,0.7-.467,0.466-2.333,0.7,0.467,0.234-.467,0.933-2.1,0.233-1.4,0.934,0.7,1.166-2.1,0.7-1.633,1.634,0.933,1.166-2.567,0.467-.466,0.467,0.466,1.4-2.333v-0.467l1.633-.7-0.467-.466,1.634-.467v-2.1l0.466-1.867,0.7-.933,0.7-.233,0.7-1.167v-0.7l0.7-1.867,1.167-.466,0.933-1.167,0.934-1.167,0.233-2.1,1.167,0.7,0.466-2.1,1.167-.7,0.933,0.467,1.4-.233v-0.7L538.2,207.4l0.7-2.333,1.633-.467,1.634,0.233,1.166-1.866L543.8,203.2l0.933-.467,1.167-2.8,0.467,0.934,0.933-.467,1.4-2.1v0.467l1.867-1.634,0.933-.466,0.233-1.4,0.7-1.4,1.634,0.233,1.166-1.4,0.234-.933,1.166,0.933,1.4-1.4,0.7-1.633,0.467-.7,0.933,0.466,0.934-1.4,0.933-.7,1.167-1.4,0.933-.7,0.233,0.234,1.867-.934v-1.866l1.4,0.933,1.4-2.333,1.167-1.167,0.466-.233,0.934-.234L571.8,178l1.167-1.167,0.7-.933,0.933-.7,0.7-1.633,0.467-.234,0.466,0.234,0.7-1.167,1.167-2.567,0.233-.466,0.934,0.466,1.4-2.566v1.166l0.7-1.166,1.4-1.634,0.233-.7,1.4-2.333,0.7,0.7v-0.467l1.867-3.966,0.7,1.166,0.466-1.4h0.934l2.333-.933,1.4-1.4,1.167,0.233,0.7-.7,1.866,1.634L597,157.7l0.933,1.633,1.4,0.7,0.7,1.867,0.7,1.633H601.2V164l1.167,0.7,0.933,1.633,0.933,1.867,0.234,0.7,0.7,0.7,1.633,2.1,0.233,2.333,0.467,1.4,0.467-.466,0.466,2.8L608.9,178.7v1.4l0.233,2.567-0.7-.467,0.934,2.1,0.233,0.233,0.233,2.334,0.234-.234-0.934,2.567,0.7,0.467-0.466.466,0.933,1.4,0.233,1.634,0.234,0.933-0.7.933,1.166,2.334-0.7-.234,0.7,1.867-0.7.7,1.167,3.033-0.467.467L611,204.833l0.467,2.567v0.467L611,209.033v2.1l-0.233,1.634L611,216.033v-0.466l-0.7,1.633,0.467,0.933L611,219.3v0.933l-0.233.934-0.467,1.166,0.467,1.167-0.7,2.333-0.234.934,0.7,0.466-0.933,2.334V229.8l0.933,2.333L610.3,233.3l-0.233,1.867,0.466,0.933-0.466.233v2.8l0.233,2.8v1.4h0.467l-0.7,1.167-0.467,2.333-0.233,1.4-0.234.7-0.466,2.567,0.233,0.7v0.933l-0.467.467,0.467,1.633-0.233,1.867,0.7,0.7,0.7,0.7-0.467,2.333,0.233,0.7,0.234,2.1v0.934l0.7,1.633-0.7.233L609.6,268.3l0.7,1.633,0.233,0.467h-0.7v2.333l0.467,2.1-0.467.467-0.7,2.333-0.233.7V279.5l-0.233,2.1-0.467-.233-0.233.7-0.7,2.333-0.467.7-0.233.7,0.233,1.867V289.3l-0.233,1.167v0.7l-0.467,1.4-0.7,2.333-0.7,1.867-0.467,2.8-1.166.466,0.466,0.467-0.933,1.4-0.933,1.4-0.234.233-0.7,2.334-0.933-.234-0.467,1.634-1.4,1.633-0.7.467-2.1.233-2.566.233L592.1,309.6l-0.933-.933-0.234-3.034-0.7-2.1,0.467,0.7-0.933-1.633,0.466-1.867v-1.4L590,296.067l0.233-1.167,0.234,0.7L590,293.967l0.233-1.4v-2.8l-0.466-.934,0.466-1.4,0.234-1.166,0.233-.934-0.233-1.166-0.467-.7V280.2l0.933-.467-0.233-1.166-0.467-1.4v-0.934l0.7-3.033-0.7.7,0.467-2.333-0.233.233L590,269v-1.633Zm56.234-7.933,0.7-1.633v-2.1l-0.467-1.634,0.467-2.333h-0.234l0.234-1.4-0.934-.933,0.7-.467v-2.8l-0.233-1.4,0.233,0.7-0.933-1.633v-0.7l0.233-1.167-0.233-1.4-0.233-1.633-0.234-3.734,0.934-1.166-0.467.933,0.233-1.633,0.234-1.634,0.233-.233-0.933-2.8,0.933-.933-0.467-1.167,0.234-.7,0.7-1.4,0.466-1.4-0.7-.467,0.7-.466v-2.334l0.234-1.633,1.166,0.7-0.233-3.267v-0.466l1.167-1.167,0.233-.233,0.467-1.167v-0.7l1.166-2.567,1.167-1.166V206l1.167,0.233,1.4-1.866,0.933,0.7,0.233-1.167,1.867-.7H660l1.4,0.7h1.4l2.8-.233,0.7-.934,2.567,0.234L670.5,203.2l0.7-.7,1.4,1.867,0.933-1.167,1.4,1.167,1.167-.934,1.4,1.634,1.167-1.867,0.933-.233,0.233,0.233,1.4,0.7,1.867,0.233,0.233-1.166,1.167,1.4,2.1-.467,1.167-.467,0.466-.7h0.934l1.633,0.7,1.167-1.166,0.933,0.7,1.633-1.167,1.167,1.4,0.467-.933,3.033-.7,0.467,0.466,1.633-.233,0.467-.467h1.166l2.1-1.166h0.934l1.166-.934,0.934-.233,1.4,1.4,0.7-.7,1.633,0.233,0.233-1.4,1.867-1.166,0.467,0.233,2.1-.233v-0.7l2.1-.7,1.166,0.233,1.167,0.233,1.4-2.333h2.1l1.867-1.4H727.2l0.7-.233,0.933,0.933,1.4-2.1h1.4l0.234,0.233,2.1-.7,0.233-.466,1.867,0.7,0.233-.934h1.633l0.934-2.1,0.7-.466,1.633-.467,0.7-.467L744.233,185l0.467,0.7,1.167-.467,0.933-1.866-0.233-.7,1.633-.7,0.7-2.1,0.7,0.233v-1.4l1.167-1.167,0.233-2.1,0.233-2.1-0.466-.933H751l-0.467-3.267-0.933.467,0.233-2.8-0.7.233,0.7-.233-1.166-1.4,0.466-1.633,0.234-1.167-0.234-1.167,0.234-3.733,0.233,0.7,0.7-1.867,0.933-1.4-0.466-1.633,0.933-.933,0.467-.934,1.166,0.467,0.467-2.333,0.933-.934,1.4-.233,1.167-1.167,1.4-.466,0.7-1.867,1.167,1.4,0.7-1.4,1.166-.7,1.167,0.933,2.333,0.7h0.7l1.4,0.467,0.467,0.7,0.933,1.4,0.934,0.467,1.166-.467v2.567L772.7,153.5l0.933,1.633L773.4,156.3l0.233,0.233,0.934,1.167-0.234.933,0.934,0.934L775.5,162.6l0.233,0.233,0.234,0.234v1.166L776.2,166.1v0.233l-0.233,1.4,0.233,0.934,1.167,2.566L776.9,173.1l0.467,1.4,0.7,1.167v1.166l0.233,1.634v0.7l-0.933,2.333-0.467.933,0.7,1.167-1.4,2.333h-0.233l-0.467.934-0.933,1.866-0.234,1.4-0.7,1.167-0.466.467v1.166l-0.234.934-0.233.233,0.233,0.7L772,196.667l0.233,0.466,0.234,2.8-0.934.934-0.466,2.1v1.166l0.466,2.334H771.3l-0.7,2.333-0.467,1.167,0.7,1.166V213l-0.233.933-0.467,1.4-0.466,1.167,0.466-.233-0.933,1.166,0.233,2.1v2.334l-0.933,2.566-0.233.7,0.933,1.4-1.167.7,0.467,3.5v-0.466l-0.233,2.566-0.234.934-0.466,1.4,0.466,0.466v0.934l-0.466,2.333v2.567l-0.7,1.166,0.466-.233-1.166,3.967-0.234.7,0.234,0.466-0.7.934V250.8l-0.7.233v3.034L765,254.533l0.467,0.7-0.234,1.167-0.233.7,0.233,2.567-0.466-.934,0.933,3.734,0.233,2.1-0.466.7,0.466,1.4,0.7,2.8L766.167,269l-0.234,1.867-0.233.7,0.233,0.7,0.234,2.333,0.233,0.233L765.233,276v0.7L765,278.333l0.933,1.634-0.466,1.166-0.934.934-0.233,1.166,0.467,0.7-0.234,1.4-0.233.934v0.7l-0.933,1.866-0.234,1.634-0.7.233v0.7l-0.466,1.167-0.467,2.566-0.467.7-1.866,2.567-0.467-.933-0.7,2.8-0.7,1.166h0.467l-0.7.467-1.167,1.167-0.467.466v0.934l-0.233,1.4-0.7.466-1.633,3.5-0.7.467-2.1-1.167-0.934,1.634-0.7-2.334-2.1.7-0.466-.466-1.4-.234-0.934-.933-1.4-.933-0.933-.7L740.967,304l0.233-1.4,0.467-1.867-0.234-1.633-0.233-.933-0.233.7L741.433,297v-0.7l-0.7-2.1v-1.4l1.167-3.033-0.233-1.167,0.7,0.467-0.7-1.867,0.7-.933v-3.5l0.233-1.4,0.233-1.867,0.7-.7-0.466-1.867L742.833,276l0.934-.7-0.234-.233,0.234-1.867,0.466-1.867-0.466-1.166,0.466-1.867-0.466-.7,0.933-1.4-0.467.7v-2.567l0.234-1.866L744.7,261.3l0.233-.467V259.9l1.167-1.167-0.7-1.166,0.933-2.1L746.1,253.6l0.467-1.4,0.7-.7,0.233-.233-0.7-1.867,0.933-1.633,0.234-1.167v-0.933L748.2,244.5l0.233-1.167,0.934-1.633,0.466-.7-0.233-2.333-0.467-1.167,0.467-.233,0.467-.7L750.3,235.4v-2.567l0.233-1.166V231.2l-0.933-1.633,0.467,0.466,0.466-2.566-0.7-.467-0.233-1.167,0.467-2.566V223.5l-0.234-1.4,0.234-1.633L750.3,218.6l0.933,0.233L751,216.967l0.7-1.4V214.4h-0.233l0.466-1.4,0.7-2.8-0.466-1.167,0.933-.933-0.7-.933,0.933-2.334-1.4-.233-0.933.933-0.7.934-2.1.466h-0.233L746.1,206.7l-1.167,1.867-0.233-.934-0.933.467-1.634,1.867-1.166-.7-0.467.933-1.4.933-0.467-.7h-1.166l-1.167.7-2.8.467-1.4.233-1.167.934-0.7-1.634-1.633,1.4-1.4-.466-1.633,2.1-0.7.933-0.934-1.633-1.166.933-1.167,1.867-0.933-.934h-1.634l-1.4.467-0.7,1.633-1.4-.233-0.933-.233-0.933.933-1.634,1.167-1.166-1.4-0.7,1.4-1.634.466-0.466-.7-0.7.234L706.2,221.4l-1.4-1.4-1.867,1.4h-1.166l-1.167.467-0.7-1.167-1.633.467-0.234,1.166-1.4-.233h-0.7l-1.4.7H693.6l-1.633-.233-1.4,1.866L690.1,223.5h-1.4l-1.4,1.633-1.167.467-0.933-.933h-1.633l-0.7-.7L681,225.133l-0.233.934-3.034-1.167L677.5,227l-1.167-1.167-1.166.7-2.8,2.334-0.467-.7-0.467,1.633-0.933,2.333-0.233.234L670.5,234l-0.467.467-0.466,1.633,0.466,2.1-0.466,1.167,0.466,0.466-0.466,2.334V245.9l0.466,1.633-1.166.7L669.1,249.4l-0.233.233L669.1,250.8l0.467,2.8-0.467.467-0.7,1.4,0.233,1.633v1.867l-0.933,1.4,0.7,0.233-1.167.7,0.467,2.567-0.467.7-0.7-.234,0.7,2.8-1.4,1.167-0.233,1.633,0.7,0.934h-1.167v1.866l0.934,1.634v1.866l-0.467.7v0.7l0.233,3.034-0.933.7-0.233.7v1.4l-0.7,1.166-0.467,2.8-0.467-.7L663.5,287.9l-0.233,2.333H662.1l-0.467,2.334v1.866l-0.466-.933-0.234,1.867-0.7,1.166-1.866,2.334L658.6,299.8l-2.333,1.633-1.167.234h-0.7l-0.933.7-1.634-1.4H651.6l-1.4.466-2.333-.7-0.7-1.166-0.234-.934-1.166-.466,0.466-3.034-0.466-.933-0.234-.467-0.233-1.866-0.233-1.167,0.233-.933,0.233-.467,0.234-2.567,0.233-2.1V285.1l-0.467-1.4L646,281.367l-0.7-.467,0.467-1.167,0.466-2.1-0.233-.7,0.467-1.166v-1.634l-0.234-.933v-0.467l-0.233-1.4L646.933,269,646,268.533l0.233-.7V264.8H646.7l0.233-1.4,0.467-1.167-0.233-1.4V259.2ZM974.533,370.5l1.4-.7,0.934,0.7h0.466l1.4,0.467,1.4,1.633,1.634,0.233,0.933,0.7,0.467-.233,1.4-.467,0.7,0.234,2.1,0.466,0.7,0.234,1.633,0.466,0.933,0.467,1.167,1.4,0.467-1.633L993.9,375.4l1.633,1.4,0.934-1.4,0.933,0.7,1.867,0.233h0.466l1.637-.233,1.16-.7,0.7,0.467,1.64,0.233h1.63l1.17-.7,1.4,1.4,1.16-.7,0.7-2.1,0.47,1.4,1.17-1.4,1.16-1.4,1.17,1.633,0.7-.466,1.63-.7,0.47-2.1,2.8,0.233,0.47,0.467,0.7-1.167,2.8,0.233,1.4-.933,0.23,0.467,1.63-.934,0.7,0.234,1.17-2.1,1.17,0.933,1.4-1.633,0.7-.467,0.7-.933,1.63,0.7,0.23-.934,1.87-1.866h0.47l1.16-1.167,0.24,0.233h1.16l0.7-1.166,1.87-2.334,0.7,1.4,0.23-1.633,1.64-.933,0.7-.467,1.16-2.1,0.94,1.167,0.23-2.8,1.17-.7,0.93,0.933,0.7-.933,1.17-2.334,0.46-1.166,0.94,0.7,0.23-1.167,1.87-2.333,0.93-.934,0.7-.933v-1.167l1.4-1.166,0.47-.467,1.16-.467,0.24-2.1,0.7-1.166,0.46-.234,0.7-.933,0.94-.467,0.7-.466,0.23-2.567,0.23-.7,1.17-.467v-1.4l1.17-.933v-0.933l0.46-2.1h0.7l0.94-2.334-0.24-.233,0.7-2.1,0.24-1.633h1.63l0.23-.934,0.7-2.566-0.7.233,1.17-1.867-0.47-2.1-0.46-.933,0.23-.233,0.93-.7v-3.5l0.94-2.1v-0.7l-0.24-1.867h-0.46v-3.5l-0.24-1.867-0.23-.7,0.47-1.4-1.17-.466,0.7-1.4-1.17.466-0.23-2.8-0.47-.7h-0.46l0.23-3.033-0.7-.467-1.63-1.4-0.24-1.166-1.16.466-0.7-2.333-0.94-1.167-0.7.467-1.16-1.167L1062.73,283h-1.16l-0.94.233-2.1-.933-2.33.7-0.7,2.333-0.47,1.167-1.16,1.867-0.24,1.166h-0.7l0.24,1.167-0.7,2.333-0.47-.466-1.17,1.166-0.23,1.867-0.47.933-1.4-.233v1.4l-0.93,1.167-1.63.7v1.166l-2.34,1.4-0.93-.233h-1.17l-1.4,1.867-1.86-.934-0.94-.233-0.7-.933-2.1-2.1-1.4.933-0.7-1.4-0.7-.467V297.7l-1.16-2.567-0.47-.933-0.47.233-0.46-2.1,0.23,0.467-0.93-2.8-1.17.467v-3.034l-0.23-1.4-0.24-1.4,0.7-1.166-0.23-1.634,0.93,0.7,0.7-1.866-0.46-1.867,0.93-.467,1.17-.7,0.46-1.166,1.4-2.1,0.47-1.4,0.93-.467,0.47-1.633,0.93-1.167v-1.167l0.47-.933,1.17-.7v-1.633l1.16-1.167h0.24l-0.7-2.1,0.46-2.1,0.94-1.4-0.47-1.167-0.23-2.1,0.46,0.7-0.23-1.633,0.93-2.1-1.16-.933,0.23-1.867-0.23-.467V245.9l0.46,0.233-0.46-3.033-1.17,1.167,0.47-2.8-0.94-.7-0.46-1.634-1.64.467-0.46-.233-2.57-.934-0.23-.233-1.4-.467-1.4-.7-1.64.467h-0.93l-0.93.233-1.4,2.1-0.7-.7-1.17-.233-0.93,2.1-1.17-.933-0.47,2.333-0.7-.933-0.93,1.4-1.4,2.1-0.47-1.167-1.4,1.4v0.467l-0.93,2.566-0.47.234v2.1l-0.93.933-0.7,1.4,0.23,1.4-0.93,1.633,0.23,0.934V257.1l-0.7,2.333-0.23,1.4,0.23-.7,0.24,2.334-0.24,1.633v0.933l-0.7,1.634V266.2l0.24,1.867-0.24.466-0.23,2.8,0.47-.233-0.24,2.1,0.24,0.933,0.46,1.167-0.46,1.167v0.466l0.23,1.4v2.334h0.23l-1.16,2.1,0.7,1.166,0.23,3.034h-0.23l-0.47.233,0.23,3.033V290.7h-0.46l-0.24,2.8,0.47-.233-0.47,1.166v1.4l0.7,1.634-0.23.466v2.1l-0.47.7v2.8l-0.23.467-0.23.233-1.17,2.1-0.23,1.167-0.47,2.333-1.17.234-0.46.7-2.1,1.4-1.4-2.334-0.7,1.4-1.17-.466-1.633-2.334-1.4-.7-0.934-1.166-0.466-.467-0.934-.233-0.933-1.634-0.233-1.4h-1.4V300.5l-0.7-1.4-0.467-1.167-0.467.467,0.234-2.333L989.7,294.2l-0.467-.7,0.467-1.633-0.7-.7,0.7-2.334-0.7-.466,0.467-.7v-1.4l1.166-1.634v-1.866l0.7-.934-0.7-2.566,0.467-.7-0.933.233,0.233-1.867-1.4-3.266,0.467,0.233-0.234-.933,0.234-1.867L989,270.167l0.467-1.4,1.166-1.167,0.234-2.8,0.466-.233-0.233-.7,0.467-2.567-0.467-1.167,0.7-.7-0.233-.7,0.466-.933v-2.333l0.234-.234,0.7-2.8L992.5,252.2l0.233-2.1v-1.633l0.934-.934-0.234-.233,0.7-2.1-0.466-.7,0.466-.7,0.234-1.633L993.9,241.7l0.7-2.1-0.233-.233,0.466-1.867h-0.466l0.7-2.567h0.7v-1.4L996,231.667V230.5l0.233-2.333-0.466-.7L996,225.833v0.7l0.933-1.633-0.233-2.1,0.233-.233-0.7-.234,0.234-1.4-1.634-2.1-0.7.7-0.7,1.4-1.4,1.167H989.7l-0.7,2.333-1.4.234V225.6l-1.167-.467-1.4,2.1-1.166.234-0.7.933-0.934-.467-1.4.467-0.466,1.867-1.4.233-0.934-.7-1.4,1.633-0.233.7L975,231.2l-1.167,1.633h-0.466l-2.1.7-0.467-2.1-2.567.467H968l-1.633.933v0.7l-2.8,3.034-0.934-.234h-0.7l-1.633.7h-1.167l-0.466.467-1.634-.467L955.4,236.1l-1.167,1.867-0.933.233-1.167-1.167-0.933-.466-1.633,1.633-0.467-.7h-1.633l-1.167-.233-1.4,1.4-0.233-.234-1.4,1.4-1.4-1.633-1.4,1.867-2.1.233h-1.4l-0.934.233H934.4l-0.233-1.4H933l-1.167.7-1.633-1.166-0.933.233-1.4.467-1.167-2.1-1.167,1.4-0.466-1.4-1.4.233-1.4-2.333-1.867-1.4-0.233.466-1.4-1.4-0.467.467-0.933-1.633-0.934-.934-0.466-2.333-0.7-.233-0.934-2.1L914.1,224.9l-1.4-.233,0.233-1.167-0.233-1.4-0.233-.7-1.4-3.267,0.466-1.633-0.933.467,0.233-2.334-0.466-.466-0.234-2.334-0.7-1.166H909.9l-0.933-2.1,0.466-1.167v-0.933l-0.7-.234-0.233-1.4,0.233-.7-1.166-2.333,0.466-1.4-0.233-.933-0.467-.934L907.8,196.2l-0.7-.933h0.7l0.467-1.4,0.466-2.334,0.467,0.234,0.467-1.634v-2.1l0.7-.933,2.333,0.7,0.7-2.8,1.167-.7,0.7-.933,0.7,0.933,0.7-1.4,0.7-1.4,0.7-1.867,0.7-.7H920.4l0.233-1.866,1.167-.234,0.933-1.4,0.234,0.467,1.4-.7,0.7-.7,2.566-2.333v-0.934l1.867-.933,0.467,0.933,0.7-.933,1.4-1.633L933,168.2l1.633,1.167,1.4-2.1,0.7,1.866,1.634-.933,0.233-.7,1.167-1.167,1.4-.466,1.166,1.633,1.4-1.4,0.934,0.7,2.333-.467h0.7l1.633-.933,1.634-.467,0.933-1.166,0.233,0.7,1.867-.934,1.4,0.7,0.233-1.4h0.934l2.1-.933,0.7-.7h1.166l2.567,0.933,0.933-1.866,0.7,1.166,1.4-.466,0.7-.467,1.867-.933h0.933l0.7-.7L972.2,159.8l0.933-.933L974.3,157h0.467l1.866-.467H977.1L978.733,157l1.4-.7,0.934-1.167,0.466,1.167,2.1-1.867,0.467,0.234,1.167-.234,1.4,0.934,1.633-2.1,2.1,1.166,0.467-.233,2.1-.7,0.233-.7h2.333L996,153.733l1.867-.7,0.233,0.934,1.633-.234,1.637-1.4,0.7,2.567,1.63-.7,0.47,1.867,0.7,0.466,1.16,0.234,0.47,2.333,0.93,1.167,0.7,1.4,1.4,0.233,0.47,1.4h1.87l0.7-.233,0.7,2.566,0.46-.233,0.94,2.8,0.46,1.167-0.46,1.166,0.93,1.4h0.93l0.7,0.934,0.7,2.1,1.17,0.233-0.47.233L1019.1,178l0.93-.233-0.23,1.866,0.47,1.167v2.8l-0.94,1.4,0.24,1.167h-0.7l-0.7,2.8,0.23,1.4-0.47.7-0.23.933-0.47,1.167v2.8l0.24,2.566L1017,199.7l-0.7-.233,0.7,2.566v1.4l-1.17.934,0.94,0.7-0.94,1.866,0.7,0.7-0.23,1.634-0.23,1.4-0.7,2.333,0.7,1.633h-0.47l-0.23,2.8V218.6l-0.47.467v1.166l-0.23,2.1V223.5l1.63,0.233,0.47-.233,1.16-.7,1.4-2.333,1.17-.7,1.17-.234,1.4,0.7,0.23,0.7,1.17-.7,2.1-.233h0.46l0.94-.233,1.86-1.167,1.17,0.933,1.17-.233,1.4,0.233,0.93,0.7,1.4,0.7,0.7-1.866,0.7,1.633h1.87l0.93,1.4,0.47-1.633,1.16,2.333,1.87,1.167,0.23,0.466,1.4,0.467,0.7,1.167,0.47,1.4,0.93,1.866h0.7l1.17,2.8,0.47,0.467,0.7,1.167,0.46,0.933,0.94-.467,0.7,0.7,0.7,2.1,1.63,2.1,1.4-.466,0.7,2.566V242.4l0.93,0.233V243.8l0.7,2.567v0.466l0.47,0.234-0.47,2.1-0.23,1.633h0.23l-0.46,3.267,0.23,1.166-0.7,2.334V257.1l-0.7.467-0.7,3.033v1.167l-1.4-.467-0.7,2.1v0.7l-1.17.467-0.23,2.1v1.166l-0.7-.7-1.4,1.4,1.17-.233,0.93,0.233,1.4-1.4,0.93,0.7,0.94-1.633,1.4,0.233,1.16-.233,0.94-.467,1.16,0.234,1.64-1.867,0.93,0.7,0.7-.7,2.57,2.1,0.93-.7h0.93l1.4-.467,1.4,2.334,0.94-1.167,0.7,1.167h1.16l0.94,1.166,1.4,1.867,0.23,0.933,1.17,0.467v1.167l0.7,1.633,0.93,0.933,1.4-.933v1.633h1.17l2.56,1.167,0.24,1.867,0.7,0.233v2.333l0.46,0.467,1.4,0.7,0.47,1.633,0.47,0.934-0.7.933,1.16,1.867h0.7l-0.7,1.866,0.94,1.167-0.24.233,0.47,0.7,0.7,2.1v1.4l0.7,1.167-0.23,2.567,0.93,0.7V304l-0.23-.233,0.23,1.866v1.4l-0.23,1.167v0.233l0.46,0.7-0.7,2.8-0.23,1.867v2.8l-0.47.233-0.46.467v2.8l-0.24,1.167,0.7,0.233-0.7.467-0.23,1.4V327.1l-0.7,1.4-0.93-.7-0.24,2.333h0.47l-1.17,2.8,0.47,1.4-1.4-.233,0.23,1.167-0.7,1.4-0.93,1.633,0.23,0.7-0.23,1.4-0.47,1.4-1.16-.933-0.24,2.1-0.93.466L1081.63,346l-0.7,1.633-1.4.467-0.23,3.033-0.7-.933-1.17,1.633-0.46,1.634-0.24.466-0.23,2.567-0.23-.467-0.24,3.034-1.16.7,0.23,1.4-1.17,1.633-1.4,1.167h-0.46l-0.47.7-0.47.466-1.16,1.4-1.17.234-0.47.466-0.93,1.634-0.93-.7-0.7,2.1h-1.64l-0.7.233-1.4,1.167v0.466l-1.16.234-0.7.7-1.17,1.4-0.7-.234-0.93,2.1-1.64,1.634-1.63.7-0.7,1.4-1.4.233-1.4.933-1.17.234-1.16,1.633-1.17-.933-0.47,2.1-0.93.466-1.87.234-0.7,1.166-0.93-.7-0.7.234-1.17.466-1.63.467-0.47,1.867-0.93-1.634-1.17,1.634-1.16-.7-0.94,1.633-1.16.7-1.87-1.4-1.63,1.167-1.87,1.4-0.23.466-1.64.934-1.4-.934-0.46.234-0.7-.234-1.64.934-0.7.933-2.1-.467-0.23.934-0.93.7-2.1.233-1.17-.7-0.93.233-1.4.7-0.94-.933-0.7-.467-1.63,1.4-0.93-.233-1.4,1.167-0.7-.7-0.7-.234-1.87.7-1.4-.7-0.93.7L999.5,397.1l-1.167-.233-2.1.233-1.4-.933-1.4.7-0.7-1.4-0.7.233-1.4.467h-2.566L986.9,395.7l-1.4-.7-0.467-1.633L984.1,395l-1.4-.467-0.467-2.1-2.333.934-0.7-1.4-1.167-1.167-1.166.933-1.634-1.866-1.4.933-0.7.233-0.7-.933-1.866-.467-0.467-1.166-1.867.933L968,387.533l-2.8-1.866-0.933-.467-0.467.467-1.633-.7-0.934-1.867-0.466-1.167-0.467.234L958.433,381l-0.933.7-0.933-2.1-0.467.233-0.933-1.166-0.7-.7-0.7-.234-1.167-.466-1.4-2.1-0.467-.234H949.1l-0.7-.7-0.933-1.4H946.3l-0.933-1.4-0.934-.933-1.166-.467-0.7-.7-0.934-.233-0.933-1.633-1.867.233-1.166-1.633-0.234-.234-1.166-2.333-0.234-.467-0.7.467-0.7-1.167-1.4-1.166,0.234-2.567-0.934-1.867-0.7.234L931.6,355.1l-0.467-1.867-1.4-1.4L928.8,351.6l-0.933-2.1-0.7-.467v-1.166l-0.467-1.634-0.233-1.633-0.934-1.4-0.466-2.1-0.234.467v-1.4L923.9,339.7l-1.633-1.633-0.234-2.8h-1.166l-0.234-2.1-0.466.466-0.234-.466L919,331.533V329.2l-0.7-.7-0.933-.933-0.234-.7v-2.1l0.7-2.334-0.7-1.4,0.467-.466-0.467-1.867v-0.467l0.234-.933v-1.4l0.7-.933,0.233-.234-0.233-1.166,1.4-2.567,3.5-1.167,1.166-.466,1.167,2.1,0.933-.467,1.4-1.167,0.7,1.4,0.7,0.234,1.167,1.166,0.233-.7,1.4,2.334-0.233,2.1,0.467,0.233,0.7,0.933,0.933,2.8V321.5l0.7,0.7h-0.233l0.7,0.933-0.234,2.334h0.7l0.467,1.4V329.2l0.233,0.233,0.234,1.167,0.233,1.167,0.933,1.4V332.7l0.467,1.867,1.167,0.233,0.466,3.033,0.934,0.234,0.233,0.466V339.7l2.1,1.4-0.233,1.167,0.7,1.633,0.7,0.233L944.9,345.3l0.933,2.333,0.7,1.167v0.467l0.7,0.233,1.167,0.933,0.933,2.1v0.7l0.934,0.234,0.7,0.466,1.633,0.234,0.467,0.933,0.466,1.633,0.934,1.4,0.7,0.467h0.7l1.166,0.933,0.467,0.934,1.867-.234L961,362.567l1.167,1.4,1.166-1.4,0.7,1.4,0.467,0.7,1.867-.234,0.7,0.934,1.166,0.466,2.1,1.4,0.467,0.7,1.167,1.167ZM960.767,213.467l0.466-.467,2.1-1.4,0.934-.233,0.233-.7h1.167l1.633,0.466,1.167-1.633,1.4-.233,0.933,1.166,0.233-2.1,1.167,0.7,2.1-.466v-0.934l2.1,0.234,1.167-.934,0.466-1.633,0.934,0.233,1.866-.466,0.934-1.4,2.1-.234L984.1,203.9l1.4-.233,1.633-.934,1.4-.7,0.934-1.633,0.466-.467L991.1,199l0.467,0.7,1.866-.467,0.934-1.166v-0.7L996,195.733l0.467-.933,0.233-.467,0.467-1.166,1.866-.467,0.934-1.867,0.463-1.4v-0.7l0.47-1.4-0.23-.7v-1.866l0.23-1.867-1.4-1.4-0.233-.467-0.934-.233-0.7-.933-1.4-1.167h-1.166l-2.334-.933-1.166.233-1.634-1.633-0.7-.234-0.933.7-0.933,1.4-2.334-1.4-0.466.934L982.7,177.3l-0.233-.7-1.4-.233-1.867.466-0.7.467-1.633,1.633-0.934.234-1.166-1.867h-1.4l-0.7,1.867-2.1-.934-0.934,1.867L968,179.4l-0.7.233-1.167.234-0.7,1.4-1.4-.234L962.4,182.2l-1.4.233-0.7-.466-1.4.933-1.4.933-1.867.934h-2.1l-1.4,1.4L951.2,185l-0.233,2.1-1.867-.933-0.233,2.1-1.4-1.167-1.167,2.1-1.167.933-0.7.467-1.4.7-0.7-.933-0.933,2.1-1.633.233-0.934.7-0.466,1.4-0.7-.467-1.167.467-0.467.7-0.933,1.4-1.633,1.167H931.6l-0.7,1.4-1.167.466L928.8,203.2l-0.467.7-0.466,2.333,0.7,0.234-0.934.7L928.1,208.8l1.633,2.1,0.934,1.633,0.466,0.7L931.6,214.4l1.167-.233,1.166,0.233,1.4,1.4,0.934-1.4,1.166,0.233,0.934,1.4,1.4-.7,1.866-.233,0.7,1.4,1.4,0.233h2.334l1.4-2.1,0.466,1.167,2.1-.7,0.234,0.7,1.633-.7h1.633l1.634,0.7,0.7-2.333,1.4,1.866,1.166-2.1ZM1264.8,245.9l-0.23-.233-0.47-.234,0.23-2.566-0.7-.7-1.4-1.167,0.47-.467-0.47-3.266-0.46.233-0.7-2.8-0.94-1.167,0.47-1.633v-1.167l-0.23-2.333,0.7-.467,0.93-2.566-0.23-.934,0.23-2.566,0.23-1.167,0.47-2.1-0.47.467,1.17-2.567-0.7-1.4-0.23-1.633,0.46-1.867,0.47,0.467,0.23-2.334-0.46-.233v-1.4l-0.24-1.4,0.24-.7-0.24-3.267,0.47-.7,0.23-2.333v-2.1l-0.46-1.167,0.23,0.234,0.47-3.034,0.46,0.7-0.93-2.1,0.47-1.166v-1.4l-0.24-1.867-0.23-1.4,0.93-.467-0.93-1.866,0.23-1.867,0.7,0.467-0.7-1.167,0.24-.933,0.23-3.034v-0.466l-0.47-1.167-0.23-1.4,0.93-.933-1.16-3.034,0.23-1.166-0.47-2.1h0.47l-1.4-1.634,0.23-2.8-0.46-1.633-0.24.467-0.7-.934-0.46-3.033-0.24.467v-2.8l-0.46.233-0.47-1.633,0.47-1.167h-0.94v-3.033l-1.4-1.867-1.63-1.4-0.93-1.167-1.17.934-2.33.233-0.47,2.333L1250.1,150l-0.47,1.167v1.166l0.47,1.867-0.93,2.1v0.467l-0.7,1.166,0.23,1.4v1.4l-0.93.467,0.7,1.633V165.4h-0.94l0.24,0.467-0.7,1.866,0.7,1.167v0.467l-0.7,2.333,0.7,1.633-0.47.934,0.23,1.633H1248l0.47,2.8-0.24,2.333,0.47,0.7v2.1l-0.47-.7L1248.7,185l0.47,1.633V189.2l-0.7.7,0.23,1.867v-0.234l0.7,0.7-0.23,3.034,0.7,1.4-0.47,2.1,0.47,0.466h-0.94v3.734l0.94,0.933-0.24,1.633-0.23,1.867h-0.7v3.033l0.47-.7-0.24,2.1,0.24,1.867,0.23,0.467-0.47,2.1-0.23,1.4,0.47,0.466-0.47,2.334,0.93,0.233-0.46,2.8-0.94,1.4-0.46-.933-1.17-1.4-1.63.233-1.17-1.167h-0.93l-1.4-.233-0.47-1.167-1.87.467-0.93-.933-0.7-.467-1.63-.467-1.64.934-0.46-1.634-2.1-.466-1.4,1.633-0.94-.7-3.26,1.167-1.17-2.1-0.47.933-0.93,1.167-1.87.466h-0.23l-1.17-.7-2.1,1.167-0.7-.467-1.4.934-0.46,1.4-0.7-1.634-1.64,1.867-0.93.7-0.93-.467-1.4,1.634-0.94-.467-0.7,1.867-0.46-.7-2.34.933-0.7.467-1.4,2.8-0.46-.934-0.47,2.334-1.17.466-0.7,1.634-1.16-.234-0.47,1.634V234.7l-0.23.7-0.7,2.567,0.46,1.166-0.46.7,0.23,1.634V242.4l-0.93,2.1-0.24.233v1.4l-0.23,2.8v-0.466l0.23,2.8-0.23.466,0.7,1.867v1.167l0.47,0.7-0.47,1.633,0.47,1.167,1.63,1.4,0.7,0.466,2.33,0.467,0.7,1.167,1.4-2.1,2.34,0.466,0.46-1.866,0.24-2.334,1.86-1.866,0.47,0.233,0.93-.233,0.47-.934,1.4-1.866,0.93-.7,0.7-1.867,0.94,0.7,0.93-.7,1.4-.233,0.47-1.867h1.86l0.24-1.167,2.1,0.234,1.63-1.4h0.93l1.87-.7h1.87l1.4,0.7,0.93-1.4,0.93,0.233,1.4-.467,1.64,0.934,0.7-.7,0.93,1.866,1.63,0.7,1.17-.7,1.4,1.4,0.93,0.7,0.94-.466,1.86,0.933,0.94-.233,0.46,2.333,0.47,1.167,0.23-.7,1.4,2.333,0.24,1.167-0.47,1.866,0.93,1.867v-0.467l-0.23,3.034-0.7.233,0.23,0.933-1.16,1.867-0.94.467-0.46,1.166-0.47,1.4-0.93,1.167-1.64,3.733,0.24,0.467-1.17.467-0.23.7L1241,274.6l-1.17.233-0.7.7-0.7,1.4-1.4,2.8-0.46.467v-0.233l-1.4.933-0.94,1.633-0.93.234V285.1h-2.57l-0.46,2.567-0.24,1.633-0.7,2.333,0.7,0.467-1.16.233,0.46,2.334,0.47,0.7-0.23.933-0.94,2.567,1.17-.234v2.1h-0.93l0.93,2.8,0.23,0.467v0.7l0.24,2.1,0.7,2.567,0.7,1.633,0.93-.467,0.23,2.567,0.94-1.167,1.86,1.634,1.17-1.4,0.7-.467,1.63-.467,0.94-1.166L1241,310.3h1.17l0.93-1.167,0.23-1.866,1.64,0.7,0.46-2.8,0.47,0.7,0.47-1.4,1.4-1.634,1.16-1.4,0.24-.7,0.46,0.934,1.17-2.567,0.7-.933,0.7,0.933,0.93-1.167,0.47-2.1,0.7-1.4v0.934l0.93-1.167,0.47-2.1,1.63,0.233,0.47-.933,0.23-1.167,0.24-1.633,0.7-2.1,0.46,0.7,0.94-1.4,0.7-1.867,1.4-.933v-1.167l0.7-1.633-0.24-3.033,0.7-.234,0.24-.7,0.23-2.8,0.23-.233v-3.5l0.7,0.933-0.93-1.166,1.17-1.4v-1.4l-0.24-2.567,0.47,0.467-0.7-2.8V261.3l0.93-1.633v-0.934l-0.46.234,0.93-2.334-0.93-1.4h0.7l0.46-1.866-0.23-2.1-0.93-2.1,0.23,0.933Zm-80.97-65.567V178l-1.16-.233h-1.4l-1.17-1.167-0.23-1.167-1.17,1.167-1.4-.7-2.57.933-0.46.934-0.7.7-0.7,1.4-1.4.233-1.17-.7-0.93,2.567-1.64.233-0.7.7h-0.7l-0.93,1.867h-0.7l-1.63,1.633-0.94.233-0.7,1.167-0.7,1.4-0.93.233-0.47-.233-1.63.233-0.47,1.167-0.46,1.633h-1.4l-0.7.934-0.7,1.4h-0.7l-0.94.933-1.4.467-0.7,1.633-1.63,1.4v-0.7l-0.93,2.1-2.57.467-0.7-.234-0.23.934-1.17,2.566h-1.17l-0.93.934-0.7.466-0.47.467-1.16.933-0.94.934-0.7.466-0.23.7-0.47,1.634-1.63,1.4v0.466l-1.4,1.167,0.47,2.1-1.4-.7-0.24,1.167-0.7.7-0.7,1.166-0.23,2.1h-1.17V221.4l-0.46.7-0.24,2.567-1.16,3.033-0.24.7-0.7.233-0.46,2.1-0.94.934L1125.5,234l-0.23,1.4-0.47-.467v2.1l-1.17.7v1.634l0.24,1.633-0.94.7-0.23.7-0.47,1.633,0.7,1.634-0.93-.934-0.23,1.867-0.24.7,0.47,1.4-0.7,2.333,0.7,1.634-0.7-.934,0.47,2.334-0.7.466-0.24,1.867,0.24,2.1v4.2l0.23,1.167-0.7.933-0.23,1.167,0.46,1.633-0.23.467,0.7,0.933-0.47.467-0.23,3.266v2.8l0.47,0.7v0.7l0.46,3.267,0.47,1.167,0.23,0.7,0.47,1.4,0.23,2.1-0.23,1.166,0.7-.466,0.23,2.1h1.17l-0.7,2.1,0.7,1.866,1.17-.233v2.567h1.16l0.24,2.333,0.23,0.467,1.17,0.7,0.46,0.933,0.94,1.633,1.16-.466-0.23,1.866,1.63-.233,1.4,2.333,0.94,0.234,0.23,1.866,0.93-.7,1.64,0.934,1.16,0.933,0.24-.233,1.86,1.866,0.47-.233,0.7,0.467,2.57-.467,0.7,1.167,1.86-.934h-0.23l1.17-1.866v-1.634l0.7-1.633-0.24-.933,0.7-.7-0.7-1.867-0.46-1.867-0.24.234-0.46-2.567-0.94-.233-0.23-2.334-1.4-.933v-0.7l-0.47-.233-1.16-.467v-1.167l-1.4-1.866h-0.94l-0.46-2.334v0.7l-1.4-2.8-0.47.467-1.63-3.267v-0.7L1136,280.2l0.23-.467-0.7-1.166-0.46-.934,0.23-2.566V273.2l-0.23-.933v0.466l-0.47-3.966,0.47-.934,0.23-1.866,0.47-.934-0.47-.933-0.23-2.333,0.7-1.167,0.7-.467-0.47-1.166,0.7-1.167v-0.467l0.7-2.1,0.47-1.866-0.47-.934,1.17-1.166,0.7-.234,0.23-.933,0.23-1.4h0.94l1.4-1.633-0.24-2.567,0.94-.933,0.46,0.7,0.7-2.567,0.94-.467,0.93-.466,0.93-1.634,0.7-1.4,0.24-.233,1.16-.933,0.24-1.634,0.7,0.234,1.4-1.167,0.46-.933,0.7-1.4,1.4-.7,0.7-.467,1.64-1.633,0.7-.7,2.1-.934,0.23-1.166,0.7,0.233,1.4-2.333,1.17,0.233v-0.933l1.4-1.4,0.46-.467,1.4-.233h0.94l1.16-.7,0.47-.467,1.63-2.1,0.7-1.167,0.47,0.234,1.17,0.233,0.7-.233,1.16-1.167,0.94-.233,2.56-1.167,0.7-.467,1.17-2.333,1.17-.933,1.4,1.166,1.16-2.333v-0.7h2.8l0.7-1.867,1.4-.7-0.46-1.166,0.23-.7,0.93-2.567-0.7-1.633,0.24-1.634-0.7-2.1-0.24-1.4v-3.266l-0.7-.234,0.24-.7-0.24-3.033-1.16-1.4,0.23-1.633v-1.4l-0.23.233-0.47-2.1ZM1381.7,282.067l-0.93-.7,0.23-1.634v-0.7l0.7-2.566-0.93-.934,0.23-.466v-1.634l0.7-.233,0.23-1.4v-0.933l0.94-2.8-0.24-2.567,0.24,0.233,0.23-2.566,0.93-.467,0.94-.7,0.46-3.033V259.2l-0.23-2.567,0.47-.466,1.16-.467-0.46-1.167,0.7-.7,0.7-2.333-0.24-1.867,1.4-1.4L1388,246.6l0.23,0.467,0.47-1.634,0.47-.933v-2.567l0.23-.466-1.17-2.1,0.47,0.933-1.17-4.433V234.7l-0.23.7,0.47-2.333-0.47-.234V230.5l-0.23.7-0.47-2.1,0.93-1.4-0.93-1.167,0.7-.933-0.23-1.867v-1.166h-1.87l-1.4,1.166-0.93,1.167-0.7.467-1.4.233-0.7.233-1.17-.933-1.17,1.167h-0.93l-1.4.466-0.93.234-1.64,1.866-0.93-.466-0.47,1.633h-2.1l-1.63.233-1.17.934-0.93-.234-1.63.934-0.47-.234-1.4,1.634-1.4.233v-0.7l-3.97,1.867-1.4.233-0.7.933-1.63.934-2.57-1.867-2.1,1.4-1.16-1.167-1.17.234-1.63-.234-1.17.467-1.17,1.4-0.46-2.1h-1.4l-1.87,1.633h-0.7l-0.93-1.633-1.4.7-1.17-.233-1.4-.234-1.4,1.167-1.17-.233-2.8.233-0.46-1.167-0.7.234-1.4-.7-1.64-.234-0.93-.7-1.17.7-0.93-2.333-0.47-.233-1.63-.234-0.23-2.1-0.94-.466-0.93-.7-1.4-.467v0.233l-1.63-2.1-1.4-2.566-1.87-3.034-0.23-1.4,0.23-1.166-0.47.933-0.46-1.633-0.47-1.167-0.23-2.8-0.24.467-0.93-2.1-0.23-1.634,0.7-1.166-0.7-.7,0.46-1.634-0.23-.466-1.17-2.1v-0.934l0.47-.933-0.23-1.167,0.23-3.033,0.7,0.933,0.23-1.166v-1.4l1.17-2.567,0.93-.933-0.46-1.867,0.7-.233,0.93-.7,0.47-1.867,0.93-.933,0.47-1.867v0.467l0.7-1.167,1.16-2.333,0.94-1.634,1.16,0.934,0.47-.7,1.17-2.567,0.93-.467,0.93-.7h0.94l0.7-1.4h0.93l0.93-.7h0.94l2.33-3.033,0.23-1.167,0.94,0.7,0.23-2.8,0.93-.7,1.4,0.934,0.7-1.634,1.17-1.166,0.7-1.4,1.17-.234,1.16-1.4h0.7l1.17-.466v-1.634l1.87-1.4h0.46l0.47-1.4,1.63-.233,0.94,0.233,1.4-1.4,2.33-.7,0.47,0.234,1.16-.7,1.64,0.233v-0.467l3.03-2.8,0.7,0.467,1.17-.933,3.03-2.567v1.4l1.87-.7,0.23-.933,1.17-1.4,1.16,0.933,2.1-1.633,1.4,0.7,1.17-2.1,1.17,0.7,0.7-.467h2.1l1.4-.467,0.93-.233,1.87-2.1,1.16,0.7,2.1-1.4,0.24-.7,2.1,0.933,1.16-.466,1.64-1.4,0.7,1.866,1.63-1.866,0.7,2.1,2.57-.934,0.46,1.167,1.64,0.467h0.7l1.63,1.166h0.7l0.47,1.167,1.63-.7,0.23,1.867,1.64,0.233h0.23l0.93,1.867,1.87,0.233,0.7-.233,0.23,0.7,0.7,0.933,1.87,0.933,0.93,0.7,1.17,2.8,0.7-.7,0.93,1.634,0.24,0.466,0.46,2.1,1.17,1.4h0.47l-0.24,1.4,0.47,0.234,0.47,1.166-0.24,3.734h-0.46l0.46,3.033-0.46.467-0.47,1.166-0.93,2.8-0.24-.466-0.46,2.1h-0.47l-0.7,1.866-0.7,2.567-0.23.7-0.24-.233-0.7.933-0.93,1.167-0.23,2.566-0.47.234v1.166l-0.23,1.634,0.23,0.466-0.23,2.1,0.46,0.234-0.46.466,0.46,1.167v2.1l-0.23-.233,0.23,3.033,1.17,1.633-0.93,1.634,1.16,1.166-0.93,1.167,0.93,1.633v-0.466L1404.57,206l0.7,1.4-0.47,1.167,0.23,2.1-0.7,1.166,0.24,1.167,0.7-.7,0.23,2.8-0.93,2.567v0.466l0.23,2.1,0.23,0.467v-0.467l-0.46,1.4,1.16,1.867-0.46,1.867,0.46,1.4v1.4l0.47,2.333,0.23,0.467-0.46,2.333-0.47,1.4,0.7,1.4h0.23l0.94,1.867V236.1l1.4-.233,0.23-.234,1.63-1.633,1.4-1.167,0.7,1.167,0.7-2.333,1.17,1.166,0.7-1.866,1.17-.234,1.86-1.633,1.17,0.233,0.93-1.166,1.87,0.933,0.47-1.633,2.56-1.634,0.47,0.234h1.63l0.24,0.233h1.63l1.4-1.167,1.17-.466,0.7,0.7,0.7-1.867,1.16-.7,3.04-.233,1.16,0.466,0.94,1.167,0.46,0.233,1.64-1.633,1.16,0.7,0.7-.467,1.64,2.1,1.63-.933,2.33,2.567,0.47-.234,1.17,2.334,2.33,1.866,0.7-.466h0.93l0.47,2.8,1.4,0.466,1.17,2.567,0.93,2.333,0.23,0.467,0.7,2.567,0.47,0.7v1.4l0.23,0.233,0.47,1.167v-0.234l0.47,1.167,1.16,1.633,0.47,0.934-0.23,2.566,1.16,2.1,0.24,0.934-0.24.933,0.94-.467-0.47,3.034,0.23,1.166,1.17,1.634-0.23.466,0.46,2.567v1.167l-1.16,1.633v1.867l0.23,1.4v0.7l-0.47,1.4v-0.7l-0.23,1.633-0.7.933,0.23,1.867,0.47,2.567-0.93.933v0.7l0.23,0.933-0.23,1.634-0.24,2.8,0.7-.467-0.7,2.333v0.7l-0.23,1.634-1.4,1.866V292.1l-0.7,1.867-0.47,1.633-1.63,1.167-0.47,1.166,0.24,2.567-0.7,1.633-1.17,1.634-0.47-.234v1.4l-0.7-.233-0.7,1.633-1.63.7,0.23,1.867-2.1,1.4-1.16-.233-2.1-.467-2.1,1.4-1.17.7H1444l-0.47-.933-1.16-.234-1.4.7-0.94-2.566,0.24-.934-0.47-.466-0.23-2.567,0.46-.7,1.17-3.033,0.47-.934,0.23-.933,0.7,0.7,0.47-1.167,0.7-2.333,0.93-1.167,0.93,0.234,0.7-2.8,0.7-1.4-0.23-2.1,0.93-.467v-0.933l0.47-.7-0.47-2.334,0.94-2.333-0.7-.467v-1.866h0.7l-0.47-2.8,0.23-1.167,0.47-.7v-1.4l0.23-.467-0.93-.466V272.5l-0.23-1.867,0.23-2.1,0.7-.466-0.47-1.167v-1.4l0.24-2.1-0.94.7,0.47-.933-0.93-4.2,0.46-.7-0.7-1.867-0.7.7v-0.7l-0.46-3.033-0.47-1.167-1.17-.233,0.24-1.634-0.47-.466-0.93-1.167-1.17-1.4v-0.467l-1.17-.933-0.46-.933-1.64-.234-0.46-1.4-2.8.467-1.17-1.167-0.93.7-1.87.234-1.87.933-1.16-1.4-0.47,2.567-1.87-.7-0.7,1.166-1.63-1.166-0.23,1.4-1.64-.467-0.7,1.167-0.7-.234-0.93,2.334-1.87.233-0.93.233-0.93,1.167-1.17.933v-1.166l-1.87,1.633v0.7l-1.16.467-0.94,2.1-0.93,1.866-0.93-.466,0.46,2.8-0.7,1.4-0.23.466,0.23,0.7-0.46.934-1.64,2.1-1.4,1.866-0.46.467,0.46,0.933-1.16,1.4-0.47.934-0.7,1.166-1.17.467,0.47,1.4-0.7,2.1,0.47,1.867-0.47,2.1,0.23,0.933v0.933l-0.93,3.034-0.23,2.1-0.7-.7,0.23,1.166-0.23,3.034v1.4l0.23,0.933-0.93.7-1.4,2.333h-1.4l-1.64,1.867-1.16-.467-1.17.234h-0.7l-2.57-1.4-1.63,1.166v-1.4l-1.63-1.4-0.24.467-1.63-1.867-0.7-.7-0.47-1.166v-0.934l-0.23-2.566-0.93-.234-0.24-2.333,0.24-1.633Zm4.43-88.434-0.7-.233v-0.933l0.24-2.334,0.23-2.8-0.23-1.166h0.46l-0.23-2.334V182.9l0.23-1.4-0.23-.467-0.47-.233,0.24-2.567-0.47-.933h-0.23l0.46-1.4-0.93-.933-0.7-4.434v0.7l-1.4-1.4-1.4-.7-0.47-.933-0.93.467-0.93-1.634-2.34,1.167-1.86-1.4-0.94,1.4-1.63-.7-1.17-.233-0.46.7-0.7.233-1.64.467-0.93.466-1.63-.466-0.47.233-0.7,2.567-1.17-.934-1.63,1.634-1.63,1.166-1.64,1.167-0.46-.7h-0.94l-0.7.467-1.63,2.8-0.47-1.4-1.63.7-0.7,1.166-1.63.467-0.94,1.167-2.33-.7-0.23.7-0.94.933-1.86.933-0.94,2.1-1.16.467-1.4-.7-0.7.7-1.17,1.867-0.7-.234-0.93,1.4-1.17-.466-0.7,2.1-0.7,1.166-0.93.234-0.24-.234-1.16,2.1v0.934l-1.87,2.566-0.47.7h-1.63l-0.7,1.167-0.93,3.733-0.94.234-0.7,1.866L1325,203.2l-0.47,2.1,0.24,2.333,0.93-.233,0.7,2.567h0.93l1.87,0.466v0.934l1.87,0.933,0.7,1.167,0.23,0.466h1.63l1.4,1.167,0.7-.467,0.94,0.234,1.4,1.166,1.86-.233,1.87,0.233,0.7,0.467,1.17,1.4,1.63-1.867,1.63,0.467,1.4-.467,1.17-.7,1.4,1.167,2.1-1.4,1.4,0.7,1.4-1.633,0.47,1.4,1.16-.934,1.4,0.234,1.64-1.634,0.46,0.234,1.17-.934,1.87,0.934,0.7-.7,2.56-.7,2.1,0.233,0.94-1.167h1.63l1.17-.233,0.93-1.633,0.47-.7,1.86-.234,0.47,0.7,1.63-2.1,0.94,0.234v-1.4L1380.3,206l0.7-.467,1.17-1.633,0.46-1.633,1.87-2.334,0.47,0.467,0.23-1.867-0.23-.466,0.46-1.867Zm260.87,17.5-0.93-2.333,0.46-.467,0.24-1.633-0.24-1.633,0.7-1.167-0.46.467-0.47-3.034,0.23-2.333h0.24v-3.733l-0.24.7,0.7-1.634-0.46-1.633-0.24.233,0.24-3.266,0.23,0.466-0.47-.933,0.24-1.867-0.7-1.166,0.46-2.1-0.46-1.167,0.23-.933v-0.7l-0.23-1.4-0.24-.7-0.23-.234V176.6l-1.17-1.867-0.46-.233,0.46-1.867L1643.97,171l-0.47-.467,0.23-1.866-1.16.233v-1.633l-0.24-2.334,0.47,0.467-0.47-2.333-0.46-.234V161.2l-0.94-.7v-2.567l-0.23.467-0.47-2.567-0.23-.466,0.23-3.034-0.93.467,0.23-1.167-0.46-1.4h-0.94l-0.46-1.866-2.8-1.4-1.17-1.867-0.7.7h-0.93l-1.17.467-1.87.233-1.16,1.867-0.47,1.166-1.63-.466-0.94,1.166h0.47l-0.7,3.034-1.17-.7,0.7,3.266-0.23.934-0.93,1.633,0.46,2.1-0.23.233,0.23,1.867-0.93-.233v2.1l0.23,2.1-0.23.466v2.1l0.93-.466-0.7,1.166,0.47,2.567-0.23.933,0.7,0.234v1.166l0.7,0.234v2.566l0.7,3.267-0.24,1.867,0.94,0.233-0.7.233,0.7,2.8,0.23-.466,0.23,2.333,0.24,1.167-0.24,1.4,0.94-.234,0.23,2.567-0.23.467-0.47,1.4,0.7-.234,0.23,1.634v1.4l-0.46.233-0.47,1.867,0.93,2.1-0.23,1.166-0.23.234-0.7,1.633,0.46,1.4-0.46.7,0.93,1.4-0.23,2.333,0.23,1.4,0.47,0.7-0.47,1.167,1.17,0.467,0.46,3.033-0.7.467,0.47,1.4,0.23,0.233-0.7,1.867v2.566l0.24,1.4,0.46-.933-0.46,2.8,0.23,1.167v2.1l-0.23-.234,0.46,2.1v1.634l-0.23.7,0.7,1.4-0.23.7v0.7l0.46,2.333-0.7.233,0.24,1.867,0.23-.233v1.166l-0.7,2.1,0.7,0.234-0.7.933,0.47,3.033-0.7,2.567h0.46v1.167l0.24,0.466-0.7,1.167,0.23,1.4v1.867l0.47,2.566h-0.24l0.24,1.634-0.47,1.633-0.47.933,0.24,1.634-0.24,1.866-0.23.467-0.23,1.867-0.94,1.4,0.47,0.233-0.47,1.867h-0.46l0.23,2.566,0.23,2.567,0.7-.467-0.23,1.634v2.1l-0.47.466,0.47,0.7,0.47,2.567-0.7,1.4,0.93-.933-0.93,1.633,0.46,1.633-0.23,2.1,0.23,2.334-1.4.7,0.7,1.633-0.23.7,0.47,3.033,0.23-.7,0.93,3.5,0.94,1.167,0.7-.933,1.63,1.866,1.17-.233,1.16-1.867L1634.4,304l0.93-1.867,1.64,0.467,0.7-3.033,0.7-.934,0.7-.933,1.63-1.167,0.7,0.234,0.47-1.167,0.23-.233,1.17-1.867,0.93-1.633v-0.934l0.7-.233,0.23-.933,0.47-.7,1.4-.7v-3.5l-0.47.233,0.47-2.333v-2.1l-0.7.233v-3.267l-0.7-.7,0.7-2.1V271.8l0.7-2.567-0.47.234,0.47-1.634-0.23-1.866L1647,264.8l0.93-1.867L1647.7,262l0.23-.7,0.24-.467v-1.866l-0.24-1.167,0.47,0.233,0.47-1.166V255.7l0.23-2.1-0.47-1.167,0.47-2.333,0.23-2.567v-1.866l-0.23-1.4,0.23,0.933,0.24-1.867-0.24-2.1-0.46-1.166,0.23,0.466v-2.566l-0.7.233v-1.4l-0.23-1.4v-3.967l-0.24-1.633-0.23-1.867,0.7-1.4-0.93-2.1h0.7l-0.7-2.333v0.467l0.46-2.8-0.46.233v-1.867l-0.24-3.266-0.46-.467-0.24-.7,0.24-1.867Zm-56.93-48.066v-2.1l-0.24-1.4-0.46-.467-0.7-.233L1588.43,157l-0.93-.7-0.7-2.1-1.4-2.333-1.4.466-0.23-1.866-1.17.466-1.4-.933-0.93.467-1.17-.934-0.23-.233-2.1-1.167-0.7-.233-0.94.7-2.8-.233-0.7.933-0.23,1.4-2.8,1.633-0.47.234-0.46,1.633-0.24.233v1.4l0.47,2.567v1.633l-0.23-.233,0.23,1.4-1.17,1.167,0.7,1.166-0.7,1.167v1.633l0.7,1.4,0.47-.233-0.23.467,0.46,3.266,0.24,1.867,0.93,0.933V175.2l-0.47.7,0.7,1.4-0.46,2.1,0.23,0.467,0.23,2.8,0.24-.234,0.93,1.634-0.47.933v2.1l0.24,0.233v1.634l0.7,2.333,0.23,1.4-0.7.933,0.7,1.634-0.47-.467v0.933l0.7,1.867-0.23,1.4v2.1l0.23,0.7,0.7,2.333-0.46-.233,0.23,3.267-0.23,1.866-0.24-.933,0.47,1.167v1.4l0.23,2.333-1.16,2.8-0.24.933-0.23,2.334-1.17,2.1-0.23-.934-1.17,1.867-1.86.7-0.94,1.867-1.16-.467-1.17.7-0.93-.467-1.17-.466-1.63.466-0.7.7-1.17.467-0.93.233-0.7.234-1.17.7-1.63-.7-0.7,1.4h-1.64l-0.7.233-1.4-1.867-1.63-.233-1.17,1.4-1.86-.233-0.7-.934-1.17.467-1.63-1.167-1.4.467-0.47-.933-0.93.466-2.1.467-0.47-1.867-1.4.934-0.23-1.634-1.4.467-1.17-.7v-2.567l-1.4-.7-0.7-.7-1.17-.233-1.16-2.567-0.47-.933h-0.47l-0.46-3.033v0.7l-0.94-2.8h0.47l-0.93-.467-0.24-1.867-0.23-1.866-0.23-1.867-0.24-.7-0.7-1.4,0.47-1.633-0.93.466,0.7-1.166-1.17-1.4,0.7-2.334-0.93-1.166,0.46-1.634-0.93.467,0.47-1.633,0.23-.467-0.93-1.4-0.24-2.567,0.24-.233v-2.333l0.7,0.7-0.94-2.567,0.7-2.8-0.93-.467h0.7l-0.7-2.1-0.23-3.5-0.7-.466-0.24-1.167h0.24l-0.94-1.633-0.23-.467-0.23-1.867V167.5l-0.47-2.333-0.7-2.1h0.47l-0.24-2.1-0.46-1.167,0.46,0.7-0.23-1.167-0.93-2.8,0.46-.933-0.93-1.4v-2.1h-1.87l-0.93.233-0.7-1.633h-2.1l-1.4-.7-1.87,1.167-0.7-1.4-1.4.466L1502.8,150l-2.8.233-2.1,1.634h-1.17l-0.7,1.866h0.47l-1.4,1.867,0.7,1.867-0.7.7-0.23.233,0.23,0.933,0.23,1.4,0.47,3.967-0.47.233V166.1l0.24,1.633,0.23,0.7,0.7,2.567-0.23.933,0.23-.233,0.7,1.867-0.47.933,0.94,1.4,0.46,1.867-0.46.933-0.24,2.8,0.7,1.633-0.7.467,0.7,1.867,0.24,0.233,0.7,2.333,0.46,1.867,0.24,1.167-0.24,1.4,0.47,1.4v1.4l0.47,0.933v2.567l0.23-.467,0.47,3.033-0.47-.466,0.7,1.166-0.47,2.567,0.47,0.467-0.23,1.866-0.7.467,0.7,0.933,0.46,3.267-0.46-.233,1.16,0.466L1501.87,213l0.7,1.167,0.46,2.1,0.24,0.933,0.93,3.033,0.23,1.167,0.7,0.233,0.47,0.467v1.867l0.47,1.4,0.7,0.7,0.7,0.933,0.46,0.7,0.47,1.633-0.23-.933,1.16,3.033h0.94l1.16-.466V234l1.87-.233,0.47,1.4,1.16,0.233,1.4-.233,1.87,0.933,1.17,0.933,0.23-.233,1.4,0.933,1.17,0.467,0.93,0.233,1.63-1.166,0.7,0.933,0.47,1.633,1.4,0.234,0.7-1.167,1.63,1.633,1.87,0.234,1.87-.467,0.46,1.867L1535,241l0.93,1.167,1.64,0.466,0.7-.466,2.1,0.233,0.46,0.233,1.4-.233,1.17-1.167,1.63,1.634,0.24,0.233,3.03-.233,0.47-.934,3.26,1.4,0.47-.233,1.17-.467,1.63-.7,0.7,0.234,1.87,0.466,0.23-.466,1.4-1.167,1.4,0.933,1.17-1.166,1.63,1.4,0.93-.934,1.17-.466,0.7,1.633,1.17-1.867,1.86,1.634,1.17-1.867,0.7,1.167h1.63l1.17-.234,0.7-2.1,1.4-.466,0.93,1.4,0.47-.467,1.4-.933h1.4l0.47-1.4,1.16-.934,0.7,0.934,1.87-.934,0.23-1.166,1.4,0.466,1.17-2.333,0.47-.933,1.16-1.4-0.7-1.867,0.24-.233,1.16-2.334-0.46.934,0.46-2.567-0.46-1.4v-0.933l0.46-1.4,0.7-2.334-0.93-.933h0.47v-5.367l0.23-.933-0.47-.467-0.23-1.866,0.47-.934-0.47-.933-0.23-2.1v-2.333h-0.24v-2.334l0.24-.233-0.24-.467,0.24-2.566-0.47.466,0.47-1.866,0.46-1.167v-1.167l-0.46-2.333-0.24-.233,0.47-.934v-1.4l0.7-1.166-0.93-.7,1.16-1.4-0.23-2.1-0.23-1.167v-2.1l0.7-1.167-0.24-1.166-0.23-.7,0.23-1.167,0.47-1.167-0.93-2.333,0.93,0.233-0.93-2.1,0.93-.233,0.23-.7-1.16-1.167,0.7-2.333v-1.633ZM1774.4,32.633l-0.47-2.333-0.7-2.1,0.47-.467L1773,27.5l-0.23-.467-1.17-1.4V24l-0.93-.933L1770.2,21.9l-0.7-1.167-0.47-1.4-1.63-1.4-0.47-2.333-0.46.467V14.433l-0.94-.233-0.7-.7-0.7-1.167-1.63-1.867-1.4-2.333-0.93-.467-0.7.933-1.4-1.4-0.7.7-0.94-1.633-1.86-.933-0.47-.7-1.63.7h-0.94l-1.16-1.4-1.4.933-1.4-.933-1.64-.233-1.4.467-1.16.7-0.7.233-1.4-1.167-1.64.467-0.93-.467-2.57.7-0.7.467h-0.93l-1.17,1.167-1.86-.467-0.7,1.4h-0.94l-0.46-.7-2.1.467L1726.8,8.6l-1.63-.233L1724.7,10.7l-1.17-.467h-0.93l-1.17.7-0.93-.233-2.1,1.167-1.63,2.567-1.64-.233-1.16,1.4-0.7.933-1.17,1.633-0.93,1.4-1.4.7-0.7-.233L1707.9,21.2l-0.47.233-1.16,1.633-0.94,2.333-0.23.933-1.17-.467L1703.7,27.5l-0.47.7-1.16.467-0.94.467L1700.9,31.7l-0.23.467h-1.64V33.8l-0.46,1.4-0.94,1.633v0.933l-0.23.7-0.23-.233-0.47,2.333-0.23.933-1.17-.467V42.9l-0.7-.7-0.47-.467-0.7-1.4-1.16-1.867-0.24-1.867h-0.46l-0.7.233-1.4-2.1,0.23-.467-1.4-1.4-0.23-.933-1.17-.467-0.47-.7-0.46-.7-0.94-3.267-0.46-2.8h-0.47l-0.93-.233-0.47-2.1-0.23-1.633V19.1l-0.47-.233-0.47-.7-0.46-3.033h-1.4l-0.47-.933-0.23-1.633-0.47-2.333-1.17.7V9.067l-0.93-.233-1.87-2.8,0.24-.933-1.87,1.167-1.17-.933L1671.5,3.7h-0.93l-1.4,1.4-0.94.7-1.63.467-0.93,1.167L1664.5,9.3l-0.47,1.167-0.46.933-0.7.933L1662.4,13.5l-1.4-.233-0.23,1.167-1.17-.233-0.47,2.8-0.7-.467-0.7,2.1-0.93.233-0.47,2.1-0.23-.467-1.63,1.4,0.23,1.633-1.17-.233-0.93,2.333V25.4l-0.93-.233-1.17,1.167-0.93,1.633v2.1l-1.64.233-0.23.233-0.93,1.4-0.47.467-0.47.933-1.16,2.333h-0.7V36.6l-0.94,1.4-1.16,2.567-0.24.933-0.7.7-0.46-.233-0.94,1.4L1640,45l-1.17,1.633V47.8l-1.16,1.4-1.17,2.1,0.23,0.7-0.93-.933-0.47,3.267-1.16-.7-0.7.467-0.24,1.867-0.23,1.4h-1.17v0.7l-1.16.933-0.24,1.4-0.7,2.333-0.93,1.4,0.23-.933-0.7,1.167-1.16,2.567h-0.47V69.5l-0.47.933h-1.4l-0.23.467-0.23.933-0.24,2.567-0.7.233-0.46,1.167-0.94,1.633-0.46.933h-0.47l-0.93,3.033,0.23,0.933-0.93,1.633-0.24.467,0.47-.233-0.7,1.867-0.23.933v2.1h-0.94l0.24,2.567-0.24-.933-0.23,3.033-1.63.233,0.23,2.8-0.93-.933L1614.8,97.5l-0.7.933v2.1l-0.23-.233-0.94.933,0.24,2.567-1.4,1.167-0.24,1.4V106.6l-0.7,1.167,0.47,3.266-0.7.934,0.47,1.166,0.7,1.867,1.4,0.467,1.16,1.4,1.17,2.566,1.87-1.166,1.16,2.1,0.47-1.4,1.4-.234,1.17,1.634,1.16,0.466,0.94-2.1,1.4,1.167,0.46-.7,1.17,0.233,0.93-1.866h1.4l0.47-2.334,0.47-.7,0.46-2.566-0.23-1.4h0.93l0.24-1.167,0.46-.467,0.24-1.4,0.93-.933-0.47-2.567,0.47-1.4,0.47-.933h0.93l-0.47-1.867,0.7-.933,0.47-.233-0.47-2.567,0.7,0.7-0.46-2.1,0.46-3.033-0.46-1.167,0.23,0.233,0.7-1.167v-2.1l0.47-2.8,0.46-1.867,0.47,0.467,0.7-.467,1.4-2.1,0.23-1.633,1.17,0.467,0.23-.7,0.24-2.1,1.16-1.633,0.47,0.467,0.7-.7,1.17-2.567-0.24.933,0.47-1.867,1.4-.467,0.47-1.867,0.7,0.233,0.7-1.633,0.46-2.333,0.24-1.167,1.4-.467,0.46,0.467,0.7-2.333,0.47-1.167,0.93-.933,1.17-2.333,0.47-.933h0.46l0.7-.467,0.47-3.033,0.93-1.867,0.7-.7,0.94-1.167V48.5l0.46-.933,0.47-.233,1.63-1.4H1661l1.63-2.567-0.46-.467,0.7-2.1h1.4l0.93-.7,0.23-.933,1.64-.467h1.16l0.7-1.4,1.17,0.467,0.7,0.933,0.47,0.7,1.16,1.867,0.7,1.633,0.24,1.4,0.7,1.633,1.4,0.7,0.23,0.7,0.47,1.867,0.46,0.933,0.47,0.7,0.7,0.233-0.47,1.633,0.47,3.267,0.93,0.233,0.47,1.867v0.7l-0.47,2.567,1.17,1.167,0.23,0.933-0.23.933L1680.37,66l0.23-.7v3.033l0.23,0.933,0.47,2.567-0.47.7,0.24,0.7-0.24,2.333L1682,75.8l-0.23,1.167v1.867h0.46V81.4l0.47-.933-0.23,2.1-0.24,2.1L1682,84.9l0.23,0.467,0.7,2.333-0.46,1.867v1.4l0.7,1.167-0.47.233V101.7l0.23,1.4-0.46,1.867,0.93,0.933,0.47-.467L1683.63,108v1.867l0.7,0.233-0.46.233,0.46,0.934v1.866l-0.23,2.1,0.23,1.167-0.23,1.167-0.23.933,0.23,1.4,0.23,1.633-0.46,2.334V124.1l0.46,1.633h-0.7l0.24,2.567-0.47.933,0.23,0.7,0.7,1.867v-0.233l-0.7.7v3.266l0.24-.233-0.24,1.167-0.23,2.333,0.93,0.467-0.93,1.166,0.7,3.034-0.23,1.4-0.24-.934,0.7,2.8-0.93,1.4,0.47-.7L1683.4,150l0.93,0.467-0.23,2.1v1.166l-0.47,2.8,0.47-.466-0.47,3.5v2.566l0.47,0.467-0.23,1.4v4.2l0.46-.933V169.6h-0.7l0.47,1.633,0.23,1.167v3.5l-0.46.233-0.24.234,0.94,1.166-0.7,1.867-0.24,1.167V182.2l0.24,0.233,0.23,1.4-0.47,2.334,0.24,0.233,0.23,1.633,0.47,0.7V190.6l-0.7,1.167,0.46-.467-0.7,2.8,0.24,1.167,0.23,1.166,0.47,1.867,0.23,2.1-0.7.933-0.23-.466,0.7,1.866,0.23,2.8V206l0.47,1.4v0.933l0.23,0.234v2.566l-0.7-.233,0.47,1.167-0.7,3.033,0.46,0.933-0.23,1.867v-0.233l-0.23,2.566,0.23-.233,0.23,2.567-0.23.933-0.23,2.1,0.7-.933-0.7,1.4,0.7,1.866-0.24,2.1,0.94,0.234-0.7,2.333,1.16,1.167-0.23.933,0.47,0.7v0.7l-0.24,1.867,1.4,2.333,0.24,1.867h0l0.46,2.333v1.167h0.94L1689.7,248v0.933l0.93,1.634-0.46.466,1.4,2.1-0.24.234,0.24,2.333h0.7l-0.47,1.4,1.4,0.7,0.23,1.4-0.7,2.8,0.94,0.7-0.24-.233,0.7,1.866,0.94,1.167-0.7.933,0.46,1.867,0.24,0.467,1.16,2.8-0.23.7h0.7l0.47,1.166,0.46,1.167,0.94,0.467,0.23,3.266,0.23,0.7,0.94,1.167,0.46,1.167,0.7-.467v1.167l0.24,0.466,0.46,3.034h0.7l0.47,0.466,0.7,0.7v3.034l0.93,0.933h0.47l0.93,1.4,0.24-.233,0.46,2.566,1.17,1.634V297l0.23,0.7,0.47,2.567,0.7,1.4h0.7l0.47,2.1,0.7,0.233,0.7,2.567,0.7,0.7h0.23l0.93,1.633,1.64,0.933,0.23,0.234L1717,311l1.87,0.233,1.63,1.867,0.93-.467,1.64-2.1,1.4-.233,0.93-1.867,0.47-3.033v0.467L1726.1,304l0.23-.933-0.23-1.167v-1.167l-0.23-.466V297.7l0.7-1.4-0.94-1.167v-2.1l-0.46-2.1-1.4-2.8-0.24.234-0.46-.467v-2.567l0.46,0.7-0.46-2.333-0.24-1.167-0.46-.233-0.47-2.1-0.23-.7h-0.7l-0.24-2.333-0.46-.7-1.64-2.567-0.46-1.867-0.24.467-0.46-.467-0.7-.933-0.7-2.567-0.47-.233-0.7-.933-0.93-1.4,0.46-.7-1.4-2.334,0.24-.933-0.94-.7,0.24-1.4-0.94-.233-0.7-1.167,0.24-.933-0.47-2.8-0.23.466V252.9H1710l-0.47-2.333-0.93-.934-0.47-2.1,0.47-.466v-0.934l-0.47-1.866-0.46-.467-0.7-.467v-2.8l-0.47.234,0.23-1.4-0.23-1.634-0.7-.7,0.47-.933-0.7-2.1v-2.333l-0.7-.467v-0.467l-0.24-.933-0.46-1.633,0.23-.7V226.3l-0.7-2.8,0.47,1.167-0.47-1.4-0.7-1.4,0.23-1.4,0.24-.934v-2.8l-0.47.467,0.47-2.333-0.24.233v-2.333l0.24-1.4-0.24-.234-0.46-2.1V208.1l-0.24-.7v-1.633l0.24-1.167,0.23-.233-0.47-1.867-0.23.233-0.23-2.566V197.6l0.46-.7v-0.233l-0.46-.934-0.7-2.333,0.7-.233-0.24-1.634V189.2h-1.16l0.46-2.567-1.16-2.566-0.24-.7,0.24-.234v-3.5l-0.24.467-0.46-.7,0.23-2.1-0.23-2.1v-0.933l0.23-1.4-0.7-2.567,0.7-1.167-0.23-1.866,0.46-1.167-0.7.467,0.7-2.334-0.93-1.4v-2.8l0.23-1.4,0.47-1.166V157l0.23-2.567-0.7-.233,0.94-.933v-2.1l-0.94-1.4,0.24-.7v-1.4l0.7-1.4-0.7.933v-2.8h0.46l0.7-2.333-0.7.466,0.94-2.333-0.24-2.1,0.47-.233-0.23-1.4-0.24-.234,0.24-2.1,0.46-1.166-0.23-2.334,1.17-1.633-0.47-1.167,0.93,0.934,0.24-1.867-0.47-.933,0.7-.467v-2.567l-0.47-1.4,0.47-1.4h0.47l-0.24-1.866v-1.4l0.7-.934,0.47-2.1-0.93-1.166,0.23-1.867,0.7-.467-0.93-1.4-0.24-1.4v-2.8h0.24l-0.47-1.166,0.93-2.1-0.93.233,0.7-1.867,0.47-1.867-0.47-2.333,0.23-.7,0.47-1.633-0.23-1.4V87.233l-0.24-.467-0.46-3.033h0.7l-0.94-.933,0.24-.933L1703,77.9l0.23-.467-0.93-.467,0.47-1.4-0.24-.7-0.23-2.333-0.93.233V71.833l-0.94-2.1,0.47-.467,1.17-2.333,0.23-1.633,0.7-.7,0.93-1.4,0.7-1.867h-0.46l0.93-1.4,0.47-2.1V57.367h1.16l0.7-2.333v-1.4l1.17-1.4,0.7-2.1V48.967l0.93-.933H1710l0.7-3.267,0.7,0.7,0.47-2.8,0.46-1.867,1.17-.7,0.93-.7,0.47-1.4V37.067l1.17,0.7,0.93-.933,0.23-2.1,1.4,0.233,0.94-1.633,0.46-.933,0.7-.467,1.4-.467,1.4-1.633,0.24-.467,0.93-.933,1.63-.7,0.7,0.7,2.34-.933,0.93-1.633,0.47,0.233,1.4-1.4,1.4-.933,1.16,0.933,0.94-1.867,0.46,1.633,1.4-1.867,1.17,0.7,1.63-.933,1.17,1.4,0.23-.233,1.4-1.4,0.94,1.4,1.4-1.867,1.63,0.467,2.33,0.933,1.17,0.467h1.17L1752.23,24l1.17,0.467,0.7-.233,1.17,2.333h0.93l0.7,0.233,0.47,1.167,1.4,1.633,0.23,0.233,0.7,1.4,0.93,0.233,0.7,2.1,0.47-.467,0.23,1.167,0.94,1.633,0.46,1.4,0.7,1.167h0.24l0.93,0.467,0.47,1.167,1.4,3.733,2.33-.467,0.93,1.167,1.4,0.467,2.57-.933,0.47-2.333v-1.4l-0.47-.7,0.93-.933-0.23-2.333-0.47-.7-0.23-.933v-2.1Z"/>
</svg>
